<svg width="686" height="43" viewBox="0 0 686 43" fill="none" xmlns="http://www.w3.org/2000/svg">
<g clip-path="url(#clip0)">
<path d="M0 28.0875H2.36906V20.9421H6.64865C11.2053 20.9421 13.2591 18.1718 13.2591 14.7137C13.2591 11.2557 11.2053 8.52362 6.61044 8.52362H0V28.0875ZM2.36906 18.8405V10.6252H6.53402C9.71506 10.6252 10.9282 12.3638 10.9282 14.7137C10.9282 17.0637 9.71506 18.8405 6.57223 18.8405H2.36906Z" fill="#93C2DB"/>
<path d="M16.7697 28.0875H19.0241V18.8023C19.0241 16.8153 20.5908 15.3633 22.7306 15.3633C23.3324 15.3633 23.9533 15.478 24.1061 15.5162V13.2235C23.8482 13.2044 23.256 13.1853 22.9216 13.1853C21.1639 13.1853 19.6355 14.1788 19.1005 15.6308H18.9477V13.4146H16.7697V28.0875Z" fill="#93C2DB"/>
<path d="M32.4838 28.3931C35.4643 28.3931 37.6423 26.9029 38.33 24.6867L36.152 24.0753C35.5789 25.6038 34.2511 26.368 32.4838 26.368C29.8377 26.368 28.0132 24.6581 27.9081 21.5152H38.5593V20.56C38.5593 15.0958 35.3114 13.2235 32.2546 13.2235C28.2807 13.2235 25.6441 16.3568 25.6441 20.8657C25.6441 25.3745 28.2424 28.3931 32.4838 28.3931ZM27.9081 19.5665C28.0609 17.2834 29.6753 15.2487 32.2546 15.2487C34.7 15.2487 36.2667 17.0828 36.2667 19.5665H27.9081Z" fill="#93C2DB"/>
<path d="M52.382 16.7007C51.6751 14.6182 50.0894 13.2235 47.1854 13.2235C44.0903 13.2235 41.7977 14.9812 41.7977 17.4649C41.7977 19.4901 43.0013 20.8465 45.6951 21.477L48.1406 22.0502C49.6213 22.3941 50.3186 23.101 50.3186 24.1136C50.3186 25.3745 48.9813 26.4062 46.8797 26.4062C45.036 26.4062 43.8801 25.6133 43.4789 24.0371L41.3391 24.5721C41.8645 27.0653 43.9184 28.3931 46.9179 28.3931C50.3282 28.3931 52.6495 26.5304 52.6495 23.9989C52.6495 21.9547 51.3694 20.665 48.752 20.025L46.574 19.4901C44.8354 19.0602 44.0521 18.4775 44.0521 17.3503C44.0521 16.0893 45.3895 15.1723 47.1854 15.1723C49.1532 15.1723 49.9652 16.2613 50.3568 17.2739L52.382 16.7007Z" fill="#93C2DB"/>
<path d="M62.195 28.3931C65.1754 28.3931 67.3534 26.9029 68.0412 24.6867L65.8632 24.0753C65.29 25.6038 63.9622 26.368 62.195 26.368C59.5489 26.368 57.7243 24.6581 57.6193 21.5152H68.2705V20.56C68.2705 15.0958 65.0226 13.2235 61.9657 13.2235C57.9918 13.2235 55.3553 16.3568 55.3553 20.8657C55.3553 25.3745 57.9536 28.3931 62.195 28.3931ZM57.6193 19.5665C57.7721 17.2834 59.3865 15.2487 61.9657 15.2487C64.4112 15.2487 65.9778 17.0828 65.9778 19.5665H57.6193Z" fill="#93C2DB"/>
<path d="M73.9543 19.2608C73.9543 16.7007 75.5401 15.2487 77.699 15.2487C79.791 15.2487 81.0615 16.6147 81.0615 18.9169V28.0875H83.3159V18.7641C83.3159 15.0194 81.3194 13.2235 78.3485 13.2235C76.1323 13.2235 74.7567 14.217 74.0689 15.7072H73.8779V13.4146H71.6999V28.0875H73.9543V19.2608Z" fill="#93C2DB"/>
<path d="M93.8167 13.4146H90.6834V9.8992H88.429V13.4146H86.2128V15.3251H88.429V24.4957C88.429 27.0558 90.4924 28.2785 92.4029 28.2785C93.2435 28.2785 93.7785 28.1257 94.0842 28.011L93.6256 25.9859C93.4346 26.0241 93.1289 26.1005 92.6322 26.1005C91.6387 26.1005 90.6834 25.7948 90.6834 23.8843V15.3251H93.8167V13.4146Z" fill="#93C2DB"/>
<path d="M103.202 28.3931C106.183 28.3931 108.361 26.9029 109.048 24.6867L106.87 24.0753C106.297 25.6038 104.969 26.368 103.202 26.368C100.556 26.368 98.7315 24.6581 98.6264 21.5152H109.278V20.56C109.278 15.0958 106.03 13.2235 102.973 13.2235C98.999 13.2235 96.3625 16.3568 96.3625 20.8657C96.3625 25.3745 98.9608 28.3931 103.202 28.3931ZM98.6264 19.5665C98.7793 17.2834 100.394 15.2487 102.973 15.2487C105.418 15.2487 106.985 17.0828 106.985 19.5665H98.6264Z" fill="#93C2DB"/>
<path d="M118.248 28.3931C121.075 28.3931 122.03 26.6355 122.527 25.833H122.795V28.0875H124.973V8.52362H122.718V15.7454H122.527C122.03 14.9812 121.152 13.2235 118.286 13.2235C114.579 13.2235 112.019 16.1657 112.019 20.7892C112.019 25.4509 114.579 28.3931 118.248 28.3931ZM118.553 26.368C115.726 26.368 114.274 23.8843 114.274 20.751C114.274 17.656 115.687 15.2487 118.553 15.2487C121.304 15.2487 122.756 17.4649 122.756 20.751C122.756 24.0753 121.266 26.368 118.553 26.368Z" fill="#93C2DB"/>
<path d="M137.286 28.0875H139.464V25.833H139.732C140.228 26.6355 141.184 28.3931 144.011 28.3931C147.679 28.3931 150.239 25.4509 150.239 20.7892C150.239 16.1657 147.679 13.2235 143.973 13.2235C141.107 13.2235 140.228 14.9812 139.732 15.7454H139.54V8.52362H137.286V28.0875ZM139.502 20.751C139.502 17.4649 140.954 15.2487 143.705 15.2487C146.571 15.2487 147.985 17.656 147.985 20.751C147.985 23.8843 146.533 26.368 143.705 26.368C140.992 26.368 139.502 24.0753 139.502 20.751Z" fill="#93C2DB"/>
<path d="M154.615 33.5516C156.649 33.5516 158.092 32.4721 158.932 30.2273L165.18 13.4528L162.715 13.4146L158.665 25.107H158.512L154.462 13.4146H152.016L157.442 28.1639L157.022 29.3102C156.219 31.5073 155.188 31.7175 153.545 31.2972L152.972 33.2841C153.201 33.3987 153.85 33.5516 154.615 33.5516Z" fill="#93C2DB"/>
<path fill-rule="evenodd" clip-rule="evenodd" d="M211.589 42.3726V34.1097C220.43 34.1097 227.267 25.4307 223.891 16.2123C222.641 12.7979 219.895 10.0746 216.452 8.83517C207.158 5.49078 198.41 12.2688 198.409 21.036C198.409 21.036 198.408 21.038 198.407 21.038H190.077C190.077 7.06799 203.685 -3.80937 218.445 0.760485C224.895 2.75771 230.021 7.84108 232.034 14.2381C236.641 28.8769 225.675 42.3726 211.589 42.3726Z" fill="#F2F8FF"/>
<path fill-rule="evenodd" clip-rule="evenodd" d="M210.297 34.3759H201.991V26.1403C201.991 26.1403 201.992 26.1387 201.993 26.1387H210.296C210.297 26.1387 210.298 26.1395 210.298 26.1395V34.3759H210.297ZM201.99 40.7058H195.61L195.608 40.704V34.3759H201.991V40.704L201.99 40.7058ZM195.613 34.3759H190.264C190.262 34.3759 190.26 34.3741 190.26 34.3741V29.0721C190.26 29.0721 190.262 29.0684 190.264 29.0684H195.609C195.611 29.0684 195.613 29.07 195.613 29.07V34.3759V34.3759ZM253.002 13.8781H255.449C258.172 13.8781 260.414 14.4094 262.113 15.4582C264 16.5866 264.957 18.7336 264.957 21.8388C264.957 25.0377 263.998 27.2813 262.107 28.5088H262.106C260.477 29.5768 258.25 30.1186 255.483 30.1186H253.002V13.8781ZM265.356 12.2847C262.893 10.5898 259.827 9.73045 256.245 9.73045H248.448V34.2663H256.245C259.818 34.2663 262.885 33.3591 265.359 31.5715C266.705 30.6244 267.763 29.3002 268.503 27.6371C269.24 25.9831 269.613 24.0323 269.613 21.8389C269.613 19.6713 269.24 17.7456 268.503 16.1145C267.762 14.476 266.704 13.1878 265.356 12.2848V12.2847ZM275.041 9.42842C274.292 9.42842 273.646 9.69216 273.126 10.2082C272.599 10.7054 272.332 11.3357 272.332 12.0809C272.332 12.8245 272.598 13.4644 273.122 13.9843C273.646 14.5038 274.291 14.768 275.041 14.768C275.789 14.768 276.435 14.5038 276.96 13.9843C277.485 13.4637 277.75 12.8236 277.75 12.0809C277.75 11.3366 277.483 10.7066 276.96 10.2121C276.435 9.69216 275.789 9.42842 275.041 9.42842V9.42842ZM272.807 34.2662H277.191V16.9854H272.807V34.2662ZM291.963 28.635C291.197 29.4979 290.213 29.9166 288.956 29.9166C287.698 29.9166 286.72 29.498 285.965 28.6357C285.213 27.7783 284.832 26.6412 284.832 25.2559C284.832 23.8491 285.213 22.6975 285.966 21.8337C286.711 20.9788 287.716 20.545 288.956 20.545C290.212 20.545 291.196 20.9665 291.963 21.8355C292.726 22.6993 293.113 23.8499 293.113 25.2559C293.113 26.6403 292.726 27.7772 291.963 28.635ZM293.113 18.4289C291.791 17.2627 290.315 16.582 288.718 16.582C286.298 16.582 284.287 17.4129 282.741 19.0487C281.174 20.6712 280.38 22.76 280.38 25.2559C280.38 27.6958 281.162 29.7772 282.707 31.4461C284.265 33.0609 286.287 33.8795 288.718 33.8795C290.409 33.8795 291.862 33.4129 293.046 32.491V32.8887C293.046 34.3227 292.659 35.4379 291.895 36.2043C291.133 36.9693 290.076 37.3566 288.753 37.3566C286.729 37.3566 285.461 36.5679 283.916 34.4978L280.931 37.343L281.011 37.4549C281.656 38.3528 282.644 39.2314 283.948 40.0661C285.252 40.8977 286.891 41.3198 288.82 41.3198C291.423 41.3198 293.529 40.5238 295.079 38.9551C296.639 37.3777 297.429 35.2655 297.429 32.6792V16.9854H293.113V18.4289H293.113ZM301.182 34.2662H305.566V16.9854H301.182V34.2662ZM303.416 9.42842C302.666 9.42842 302.021 9.69216 301.501 10.2082C300.974 10.7054 300.708 11.3357 300.708 12.0809C300.708 12.8245 300.973 13.4644 301.497 13.9843C302.021 14.5038 302.666 14.768 303.416 14.768C304.165 14.768 304.811 14.5038 305.335 13.9843C305.86 13.4637 306.125 12.8236 306.125 12.0809C306.125 11.3366 305.858 10.7066 305.335 10.2121C304.811 9.69216 304.165 9.42842 303.416 9.42842H303.416ZM315.176 12.3158H310.86V16.9854H308.353V20.9484H310.86V28.1265C310.86 30.3726 311.312 31.98 312.205 32.9027C313.1 33.8298 314.689 34.2999 316.929 34.2999C317.641 34.2999 318.358 34.2767 319.059 34.2311L319.257 34.2181V30.2579L317.753 30.336C316.71 30.336 316.013 30.154 315.681 29.7962C315.346 29.4326 315.176 28.6629 315.176 27.51V20.9486H319.257V16.9854H315.176V12.3157V12.3158ZM339.814 34.2662H344.199V9.7306H339.814V34.2662ZM388.494 28.0869C387.709 28.9587 386.907 29.7144 386.289 30.1073V30.108C385.683 30.4937 384.918 30.6895 384.015 30.6895C382.724 30.6895 381.685 30.2229 380.838 29.2616C379.997 28.3058 379.57 27.0775 379.57 25.6087C379.57 24.1398 379.991 22.9131 380.822 21.9642C381.657 21.0093 382.69 20.545 383.981 20.545C385.393 20.545 386.882 21.4161 388.158 22.9118L391.056 20.156C389.167 17.7171 386.757 16.582 383.88 16.582C381.473 16.582 379.386 17.4521 377.678 19.1661C375.979 20.8684 375.118 23.0359 375.118 25.6087C375.118 28.1814 375.978 30.3545 377.675 32.0677C379.374 33.7829 381.462 34.6526 383.88 34.6526C387.055 34.6526 389.616 33.2935 391.344 30.8035L388.494 28.0869ZM396.905 23.4681C397.116 22.6418 397.5 21.9532 398.05 21.4185C398.645 20.8387 399.418 20.545 400.349 20.545C401.412 20.545 402.234 20.8447 402.794 21.4376C403.313 21.9861 403.605 22.6689 403.667 23.4679H396.905V23.4681ZM406.488 19.3994C405.866 18.5404 405.02 17.8488 403.97 17.3433C402.925 16.8381 401.706 16.5819 400.348 16.5819C397.9 16.5819 395.898 17.4779 394.394 19.2454C392.934 20.9996 392.195 23.1798 392.195 25.7259C392.195 28.3451 393.007 30.5128 394.607 32.1686C396.199 33.8168 398.33 34.6526 400.94 34.6526C403.897 34.6526 406.323 33.4668 408.151 31.1275L408.25 31.0018L405.39 28.2754C405.124 28.5928 404.749 28.9523 404.406 29.273C403.973 29.6782 403.566 29.9917 403.131 30.2064C402.476 30.53 401.741 30.6895 400.919 30.6895C399.704 30.6895 398.698 30.3351 397.929 29.6358C397.21 28.9823 396.789 28.1004 396.678 27.0113H408.294L408.333 25.4243C408.333 24.301 408.179 23.2186 407.874 22.2071C407.573 21.2001 407.105 20.2509 406.488 19.3994H406.488ZM415.541 27.6624C416.039 27.3184 416.741 27.1455 417.63 27.1455C418.685 27.1455 419.805 27.3552 420.958 27.7703V29.4654C420.005 30.344 418.732 30.7895 417.174 30.7895C416.415 30.7895 415.825 30.6224 415.419 30.2916C415.021 29.9681 414.828 29.5562 414.828 29.0345C414.828 28.4418 415.061 27.9924 415.541 27.6624H415.541ZM423.326 18.2783H423.325C421.997 17.1533 420.16 16.5819 417.867 16.5819C416.408 16.5819 415.044 16.9001 413.81 17.5205C412.668 18.0948 411.547 19.0454 410.835 20.2902L410.879 20.3433L413.687 23.0089C414.843 21.1801 416.129 20.5452 417.834 20.5452C418.75 20.5452 419.51 20.789 420.094 21.2696C420.676 21.7469 420.958 22.3536 420.958 23.1233V23.9621C419.871 23.6341 418.787 23.4679 417.732 23.4679C415.55 23.4679 413.775 23.9773 412.456 24.9807C411.12 25.9977 410.443 27.4518 410.443 29.3033C410.443 30.927 411.014 32.2462 412.144 33.2264C413.283 34.1721 414.708 34.6526 416.377 34.6526C418.046 34.6526 419.608 33.9855 421.026 32.8433V34.2662H425.343V23.157C425.343 21.0535 424.664 19.4125 423.326 18.2783V18.2783ZM442.209 18.6167C440.988 17.2673 439.272 16.5819 437.108 16.5819C435.369 16.5819 433.956 17.0773 432.899 18.0551V16.9854H428.6V34.2662H432.984V24.7357C432.984 23.4262 433.299 22.3866 433.918 21.6448C434.536 20.9046 435.386 20.545 436.515 20.545C437.508 20.545 438.261 20.8666 438.817 21.5275C439.375 22.1915 439.657 23.1064 439.657 24.2487V34.2662H444.041V24.2487C444.041 21.8552 443.425 19.961 442.209 18.6167ZM326.52 27.6624C327.017 27.3184 327.72 27.1455 328.609 27.1455C329.664 27.1455 330.783 27.3552 331.937 27.7703V29.4654C330.984 30.344 329.711 30.7895 328.152 30.7895C327.393 30.7895 326.804 30.6224 326.398 30.2916C326 29.9681 325.806 29.5562 325.806 29.0345C325.806 28.4418 326.04 27.9924 326.52 27.6624ZM334.304 18.2783H334.304C332.975 17.1533 331.138 16.5819 328.846 16.5819C327.387 16.5819 326.023 16.9001 324.789 17.5205C323.647 18.0948 322.526 19.0454 321.814 20.2902L321.858 20.3433L324.665 23.0089C325.822 21.1801 327.108 20.5452 328.812 20.5452C329.728 20.5452 330.489 20.789 331.073 21.2696C331.654 21.7469 331.937 22.3536 331.937 23.1233V23.9621C330.85 23.6341 329.766 23.4679 328.711 23.4679C326.529 23.4679 324.753 23.9773 323.434 24.9807C322.099 25.9977 321.422 27.4518 321.422 29.3033C321.422 30.927 321.993 32.2462 323.123 33.2264C324.262 34.1721 325.686 34.6526 327.356 34.6526C329.025 34.6526 330.587 33.9855 332.004 32.8433V34.2662H336.321V23.157C336.321 21.0535 335.643 19.4125 334.304 18.2783H334.304ZM360.107 13.7966C355.553 13.7966 351.848 17.4706 351.848 21.9873C351.848 26.5041 355.553 30.1781 360.107 30.1781C364.661 30.1781 368.366 26.5041 368.366 21.9873C368.366 17.4706 364.661 13.7966 360.107 13.7966ZM360.107 34.6353C353.075 34.6353 347.354 28.9617 347.354 21.9873C347.354 15.0127 353.075 9.33893 360.107 9.33893C367.139 9.33893 372.86 15.0127 372.86 21.9873C372.86 28.9617 367.139 34.6353 360.107 34.6353Z" fill="#F2F8FF"/>
<path d="M474.174 27.3423H476.313V22.1074H481.548V19.9676H476.313V14.7328H474.174V19.9676H468.939V22.1074H474.174V27.3423Z" fill="#93C2DB"/>
<g clip-path="url(#clip1)">
<path d="M512.273 5.86359H506.445V11.6917H512.273V5.86359Z" fill="white"/>
<path d="M512.125 36.2199V15.2305H506.608V36.2199H512.125ZM548.794 36.4273V31.2836C547.985 31.2836 547.301 31.2421 546.803 31.1592C546.222 31.0762 545.787 30.8688 545.496 30.5785C545.206 30.2881 545.019 29.8733 544.916 29.334C544.833 28.8155 544.791 28.1311 544.791 27.3015V19.9593H548.794V15.2305H544.791V7.03799H539.254V27.3429C539.254 29.0644 539.399 30.5162 539.689 31.6777C539.979 32.8184 540.477 33.7517 541.162 34.4569C541.846 35.1621 542.759 35.6599 543.858 35.971C544.978 36.2821 546.388 36.4273 548.068 36.4273H548.794ZM580.486 36.2199V5.42023H574.948V36.2199H580.486ZM533.923 17.2838C532.388 15.6246 530.231 14.7949 527.494 14.7949C526.166 14.7949 524.963 15.0646 523.864 15.6038C522.786 16.1431 521.852 16.8897 521.126 17.8438L520.815 18.2379V17.8853V15.2305H515.36V36.2199H520.857V25.0407V25.8081C520.857 25.6837 520.857 25.5592 520.857 25.4348C520.919 23.4645 521.396 22.0126 522.309 21.0793C523.283 20.0838 524.466 19.586 525.814 19.586C527.411 19.586 528.634 20.0838 529.443 21.0378C530.231 21.9919 530.646 23.34 530.646 25.0615V25.103V36.1991H536.225V24.2941C536.246 21.3074 535.458 18.943 533.923 17.2838ZM572.086 25.6837C572.086 24.1696 571.816 22.7593 571.298 21.4319C570.758 20.1252 570.012 18.9638 569.078 17.9682C568.124 16.9727 566.984 16.2053 565.656 15.6453C564.329 15.0853 562.856 14.8157 561.259 14.8157C559.745 14.8157 558.314 15.106 556.987 15.666C555.659 16.2468 554.498 17.0142 553.523 17.989C552.548 18.9638 551.76 20.1252 551.2 21.4526C550.619 22.78 550.35 24.2111 550.35 25.7252C550.35 27.2392 550.619 28.6703 551.159 29.9977C551.698 31.3251 552.465 32.4866 553.419 33.4614C554.373 34.4362 555.556 35.2243 556.924 35.7843C558.293 36.365 559.807 36.6554 561.425 36.6554C566.112 36.6554 569.016 34.5191 570.758 32.5281L566.776 29.4999C565.947 30.4955 563.955 31.8436 561.467 31.8436C559.911 31.8436 558.625 31.491 557.65 30.7651C556.676 30.0599 556.012 29.0644 555.659 27.8407L555.597 27.654H572.086V25.6837ZM555.639 23.7548C555.639 22.22 557.401 19.5445 561.197 19.5238C564.993 19.5238 566.776 22.1993 566.776 23.7341L555.639 23.7548Z" fill="white"/>
</g>
<path d="M610.622 27.3423H612.762V22.1074H617.996V19.9676H612.762V14.7328H610.622V19.9676H605.387V22.1074H610.622V27.3423Z" fill="#93C2DB"/>
<g clip-path="url(#clip2)">
<path d="M679.293 42.5352C667.909 41.4352 656.519 40.3294 645.135 39.2294C644.94 39.132 644.74 39.0404 644.545 38.9373C643.405 38.3414 642.786 37.2185 642.912 35.9581C643.989 24.8091 645.066 13.6602 646.155 2.517C646.178 2.25918 646.247 1.99564 646.361 1.76648C646.951 0.563354 648.195 -0.112686 649.541 0.0190841C660.529 1.08471 671.518 2.1446 682.512 3.21023C684.294 3.3821 685.56 4.9347 685.388 6.7222C684.328 17.6821 683.263 28.6477 682.203 39.6076C682.1 40.6789 681.578 41.5039 680.65 42.031C680.232 42.2659 679.745 42.369 679.293 42.5352ZM651.959 26.1039C652.016 26.1269 652.05 26.1498 652.085 26.1498C653.385 26.2758 654.68 26.442 655.981 26.5164C657.55 26.6081 659.149 25.3248 659.326 23.7951C659.578 21.681 659.779 19.5555 659.945 17.43C660.065 15.8831 658.696 14.2847 657.155 14.1014C655.9 13.9524 654.64 13.8493 653.38 13.729C653.305 13.7232 653.231 13.7404 653.156 13.7461C652.755 17.8826 652.354 21.9904 651.959 26.1039ZM669.146 15.2644C669.146 15.3618 669.129 15.4305 669.14 15.4878C669.725 19.0399 670.292 22.5977 670.911 26.1498C670.997 26.6597 671.26 27.1753 671.57 27.5935C672.097 28.3154 673.076 28.4013 673.724 27.7883C674.102 27.4274 674.446 26.969 674.635 26.4878C675.7 23.7378 676.709 20.9706 677.74 18.2092C677.986 17.5388 678.233 16.8685 678.485 16.181C677.631 16.1008 676.835 16.0206 675.998 15.9404C675.013 18.6274 674.027 21.3144 673.048 24.0013C672.95 23.8352 672.91 23.6576 672.882 23.4857C672.469 20.9248 672.062 18.3638 671.644 15.8029C671.627 15.6883 671.524 15.5107 671.444 15.4993C670.682 15.4019 669.92 15.3389 669.146 15.2644ZM663.331 19.8362C663.388 19.2404 663.434 18.7076 663.497 18.1748C663.543 17.7909 663.486 17.2638 663.709 17.0633C663.904 16.8857 664.431 17.0633 664.809 17.0977C665.726 17.1836 666.637 17.2753 667.565 17.3612C667.639 16.5935 667.708 15.8717 667.783 15.1269C666.127 14.9665 664.506 14.7946 662.878 14.6685C662.609 14.6456 662.294 14.8003 662.048 14.955C661.555 15.2586 661.44 15.78 661.389 16.3185C661.114 19.1888 660.833 22.0592 660.558 24.9352C660.535 25.1586 660.524 25.3821 660.524 25.6055C660.524 26.419 661.074 27.0263 661.887 27.1065C663.331 27.2498 664.775 27.3873 666.213 27.5248C666.339 27.5362 666.465 27.5362 666.585 27.542C666.66 26.7857 666.728 26.0696 666.803 25.3076C665.474 25.1815 664.173 25.0555 662.873 24.9295C662.964 23.967 663.056 23.056 663.148 22.0993C663.956 22.1795 664.735 22.2539 665.531 22.3284C665.606 21.555 665.674 20.8331 665.749 20.0769C664.947 19.9909 664.173 19.9165 663.331 19.8362Z" fill="white"/>
<path d="M654.399 24.1086C654.656 21.4445 654.908 18.832 655.161 16.2138C655.716 16.2654 656.278 16.2596 656.805 16.3914C657.418 16.5404 657.721 17.0675 657.658 17.7721C657.504 19.531 657.338 21.2841 657.149 23.0372C657.063 23.8336 656.576 24.2404 655.762 24.2346C655.321 24.2289 654.88 24.1544 654.399 24.1086Z" fill="white"/>
</g>
</g>
<defs>
<clipPath id="clip0">
<rect width="685.399" height="42.0751" fill="white"/>
</clipPath>
<clipPath id="clip1">
<rect width="74.0436" height="31.2352" fill="white" transform="translate(506.446 5.41998)"/>
</clipPath>
<clipPath id="clip2">
<rect width="42.5046" height="42.5333" fill="white" transform="translate(642.894)"/>
</clipPath>
</defs>
</svg>
