<svg width="773" height="142" viewBox="0 0 773 142" fill="none" xmlns="http://www.w3.org/2000/svg">
<path d="M0 0H690.091C735.414 0 772.156 36.7416 772.156 82.0646V141.395H82.0645C36.7415 141.395 0 104.653 0 59.3302V0Z" fill="#183D5D"/>
<g clip-path="url(#clip0)">
<path fill-rule="evenodd" clip-rule="evenodd" d="M111.183 96.5745V86.5172C121.945 86.5172 130.265 75.9534 126.157 64.7331C124.635 60.5771 121.293 57.2624 117.102 55.7538C105.79 51.6832 95.1422 59.9331 95.1406 70.6042C95.1406 70.6042 95.1395 70.6068 95.1381 70.6068H85C85 53.6029 101.563 40.3633 119.528 45.9256C127.379 48.3566 133.618 54.5439 136.069 62.3301C141.676 80.148 128.328 96.5745 111.183 96.5745Z" fill="#F2F8FF"/>
<path fill-rule="evenodd" clip-rule="evenodd" d="M109.611 86.8411H99.5011V76.8171C99.5011 76.8171 99.502 76.8151 99.503 76.8151H109.61C109.611 76.8151 109.612 76.8162 109.612 76.8162V86.8411H109.611ZM99.4993 94.5457H91.7336L91.7315 94.5435V86.8411H99.5009V94.5435L99.4993 94.5457ZM91.7372 86.8411H85.2273C85.2246 86.8411 85.2226 86.839 85.2226 86.839V80.3856C85.2226 80.3856 85.2246 80.381 85.2273 80.381H91.7324C91.7351 80.381 91.7372 80.383 91.7372 80.383V86.8411V86.8411ZM161.59 61.8919H164.569C167.883 61.8919 170.611 62.5386 172.68 63.8152C174.976 65.1887 176.142 67.8019 176.142 71.5814C176.142 75.475 174.974 78.2059 172.672 79.7H172.67C170.689 80.9999 167.977 81.6593 164.61 81.6593H161.59V61.8919ZM176.627 59.9525C173.628 57.8895 169.897 56.8435 165.537 56.8435H156.047V86.7078H165.537C169.886 86.7078 173.619 85.6035 176.63 83.4278C178.269 82.2749 179.556 80.6632 180.457 78.6389C181.354 76.6258 181.808 74.2513 181.808 71.5816C181.808 68.9432 181.354 66.5994 180.457 64.614C179.556 62.6197 178.267 61.0517 176.627 59.9527V59.9525ZM188.415 56.4759C187.503 56.4759 186.717 56.7969 186.084 57.425C185.443 58.0302 185.118 58.7974 185.118 59.7044C185.118 60.6095 185.442 61.3884 186.079 62.0212C186.717 62.6535 187.503 62.975 188.415 62.975C189.326 62.975 190.112 62.6535 190.751 62.0212C191.389 61.3875 191.712 60.6084 191.712 59.7044C191.712 58.7985 191.387 58.0317 190.751 57.4297C190.112 56.7969 189.326 56.4759 188.415 56.4759V56.4759ZM185.695 86.7076H191.031V65.6741H185.695V86.7076ZM209.012 79.8536C208.08 80.9038 206.882 81.4134 205.351 81.4134C203.821 81.4134 202.63 80.904 201.711 79.8545C200.796 78.8109 200.332 77.4268 200.332 75.7406C200.332 74.0283 200.796 72.6266 201.712 71.5753C202.619 70.5347 203.843 70.0067 205.351 70.0067C206.881 70.0067 208.079 70.5197 209.012 71.5774C209.941 72.6288 210.412 74.0293 210.412 75.7406C210.412 77.4257 209.941 78.8094 209.012 79.8536ZM210.412 67.431C208.803 66.0115 207.005 65.1831 205.062 65.1831C202.117 65.1831 199.669 66.1943 197.787 68.1854C195.88 70.1603 194.913 72.7027 194.913 75.7406C194.913 78.7104 195.865 81.2438 197.746 83.2752C199.642 85.2406 202.103 86.237 205.062 86.237C207.12 86.237 208.889 85.6691 210.33 84.5469V85.0311C210.33 86.7765 209.858 88.1338 208.929 89.0667C208.001 89.9977 206.715 90.4692 205.105 90.4692C202.641 90.4692 201.097 89.5093 199.217 86.9896L195.584 90.4526L195.682 90.5888C196.467 91.6817 197.669 92.7512 199.256 93.7671C200.843 94.7793 202.838 95.293 205.187 95.293C208.355 95.293 210.918 94.3242 212.805 92.4148C214.703 90.4949 215.665 87.9239 215.665 84.776V65.6741H210.412V67.431H210.412ZM220.233 86.7076H225.569V65.6741H220.233V86.7076ZM222.952 56.4759C222.04 56.4759 221.254 56.7969 220.621 57.425C219.98 58.0302 219.656 58.7974 219.656 59.7044C219.656 60.6095 219.979 61.3884 220.617 62.0212C221.254 62.6535 222.04 62.975 222.952 62.975C223.864 62.975 224.65 62.6535 225.288 62.0212C225.926 61.3875 226.249 60.6084 226.249 59.7044C226.249 58.7985 225.925 58.0317 225.288 57.4297C224.65 56.7969 223.864 56.4759 222.952 56.4759H222.952ZM237.266 59.9904H232.012V65.6741H228.961V70.4977H232.012V79.2347C232.012 81.9686 232.563 83.925 233.65 85.048C234.739 86.1765 236.674 86.7486 239.4 86.7486C240.267 86.7486 241.139 86.7205 241.993 86.665L242.233 86.6491V81.8289L240.403 81.9239C239.133 81.9239 238.284 81.7025 237.881 81.2669C237.473 80.8243 237.266 79.8875 237.266 78.4843V70.4979H242.233V65.6741H237.266V59.9902V59.9904ZM267.255 86.7076H272.592V56.8437H267.255V86.7076ZM326.506 79.1864C325.551 80.2475 324.574 81.1674 323.822 81.6456V81.6465C323.084 82.116 322.153 82.3542 321.055 82.3542C319.483 82.3542 318.218 81.7863 317.188 80.6162C316.164 79.4529 315.644 77.9579 315.644 76.17C315.644 74.3821 316.157 72.8891 317.168 71.734C318.184 70.5718 319.442 70.0067 321.013 70.0067C322.732 70.0067 324.545 71.0669 326.098 72.8875L329.625 69.5332C327.325 66.5647 324.391 65.1831 320.89 65.1831C317.96 65.1831 315.42 66.242 313.341 68.3283C311.274 70.4003 310.225 73.0385 310.225 76.17C310.225 79.3015 311.273 81.9465 313.338 84.0317C315.406 86.1194 317.947 87.178 320.89 87.178C324.754 87.178 327.872 85.5237 329.975 82.493L326.506 79.1864ZM336.744 73.5645C337.001 72.5589 337.469 71.7207 338.138 71.0698C338.861 70.3642 339.802 70.0067 340.936 70.0067C342.229 70.0067 343.23 70.3714 343.912 71.0931C344.543 71.7608 344.899 72.5918 344.974 73.5644H336.744V73.5645ZM348.408 68.6123C347.651 67.5667 346.621 66.7249 345.344 66.1096C344.071 65.4947 342.587 65.1829 340.934 65.1829C337.955 65.1829 335.518 66.2735 333.688 68.4248C331.911 70.56 331.011 73.2137 331.011 76.3127C331.011 79.5007 331.999 82.1391 333.947 84.1546C335.885 86.1606 338.478 87.178 341.655 87.178C345.254 87.178 348.207 85.7347 350.433 82.8873L350.553 82.7343L347.071 79.4158C346.748 79.8022 346.291 80.2398 345.874 80.6301C345.347 81.1233 344.852 81.5048 344.323 81.7662C343.525 82.16 342.63 82.3542 341.63 82.3542C340.151 82.3542 338.926 81.9229 337.99 81.0716C337.115 80.2763 336.603 79.2029 336.467 77.8773H350.606L350.653 75.9456C350.653 74.5783 350.466 73.2609 350.095 72.0298C349.729 70.804 349.158 69.6487 348.408 68.6123H348.408ZM359.427 78.6698C360.033 78.251 360.888 78.0406 361.969 78.0406C363.254 78.0406 364.616 78.2958 366.02 78.8011V80.8643C364.861 81.9337 363.312 82.476 361.414 82.476C360.49 82.476 359.772 82.2726 359.279 81.8699C358.794 81.4761 358.559 80.9748 358.559 80.3399C358.559 79.6184 358.843 79.0714 359.427 78.6698H359.427ZM368.902 67.2477H368.902C367.285 65.8784 365.049 65.1829 362.258 65.1829C360.482 65.1829 358.822 65.5702 357.319 66.3253C355.93 67.0244 354.566 68.1815 353.699 69.6965L353.753 69.7612L357.17 73.0056C358.577 70.7797 360.142 70.0069 362.217 70.0069C363.332 70.0069 364.258 70.3037 364.969 70.8886C365.677 71.4696 366.02 72.2081 366.02 73.1449V74.1659C364.697 73.7667 363.378 73.5644 362.094 73.5644C359.438 73.5644 357.277 74.1843 355.672 75.4057C354.046 76.6435 353.222 78.4134 353.222 80.667C353.222 82.6433 353.917 84.249 355.292 85.442C356.679 86.5931 358.413 87.178 360.445 87.178C362.476 87.178 364.378 86.366 366.103 84.9758V86.7076H371.358V73.1859C371.358 70.6256 370.532 68.6282 368.902 67.2477V67.2477ZM391.887 67.6596C390.401 66.0171 388.312 65.1829 385.678 65.1829C383.561 65.1829 381.841 65.7859 380.555 66.976V65.6741H375.322V86.7076H380.658V75.1074C380.658 73.5136 381.041 72.2482 381.795 71.3453C382.547 70.4444 383.581 70.0067 384.956 70.0067C386.165 70.0067 387.082 70.3982 387.757 71.2026C388.436 72.0108 388.78 73.1243 388.78 74.5147V86.7076H394.117V74.5147C394.117 71.6014 393.367 69.2959 391.887 67.6596ZM251.073 78.6698C251.679 78.251 252.534 78.0406 253.616 78.0406C254.901 78.0406 256.263 78.2958 257.667 78.8011V80.8643C256.507 81.9337 254.958 82.476 253.06 82.476C252.136 82.476 251.419 82.2726 250.925 81.8699C250.44 81.4761 250.205 80.9748 250.205 80.3399C250.205 79.6184 250.489 79.0714 251.073 78.6698ZM260.548 67.2477H260.548C258.931 65.8784 256.695 65.1829 253.904 65.1829C252.129 65.1829 250.468 65.5702 248.966 66.3253C247.576 67.0244 246.212 68.1815 245.345 69.6965L245.399 69.7612L248.816 73.0056C250.223 70.7797 251.789 70.0069 253.863 70.0069C254.978 70.0069 255.904 70.3037 256.615 70.8886C257.323 71.4696 257.667 72.2081 257.667 73.1449V74.1659C256.343 73.7667 255.024 73.5644 253.74 73.5644C251.084 73.5644 248.923 74.1843 247.318 75.4057C245.692 76.6435 244.868 78.4134 244.868 80.667C244.868 82.6433 245.563 84.249 246.939 85.442C248.325 86.5931 250.059 87.178 252.091 87.178C254.123 87.178 256.023 86.366 257.749 84.9758V86.7076H263.003V73.1859C263.003 70.6256 262.178 68.6282 260.548 67.2477H260.548ZM291.955 61.7927C286.412 61.7927 281.903 66.2646 281.903 71.7622C281.903 77.2598 286.412 81.7317 291.955 81.7317C297.497 81.7317 302.007 77.2598 302.007 71.7622C302.007 66.2646 297.497 61.7927 291.955 61.7927ZM291.955 87.1569C283.395 87.1569 276.432 80.2512 276.432 71.7622C276.432 63.2729 283.395 56.367 291.955 56.367C300.514 56.367 307.477 63.2729 307.477 71.7622C307.477 80.2512 300.514 87.1569 291.955 87.1569Z" fill="#F2F8FF"/>
<path d="M430.793 78.2801H433.397V71.9084H439.769V69.3039H433.397V62.9323H430.793V69.3039H424.421V71.9084H430.793V78.2801Z" fill="#93C2DB"/>
<g clip-path="url(#clip1)">
<path d="M477.166 52.137H470.073V59.2307H477.166V52.137Z" fill="white"/>
<path d="M476.986 89.0856V63.538H470.271V89.0856H476.986ZM521.618 89.3381V83.0774C520.634 83.0774 519.801 83.0269 519.195 82.9259C518.488 82.8249 517.958 82.5725 517.604 82.2191C517.251 81.8656 517.024 81.3607 516.898 80.7044C516.797 80.0733 516.746 79.2402 516.746 78.2304V69.2938H521.618V63.538H516.746V53.5664H510.006V78.2809C510.006 80.3762 510.183 82.1433 510.536 83.557C510.889 84.9455 511.495 86.0815 512.328 86.9398C513.161 87.7981 514.272 88.404 515.61 88.7827C516.973 89.1613 518.69 89.3381 520.735 89.3381H521.618ZM560.192 89.0856V51.5973H553.452V89.0856H560.192ZM503.518 66.0372C501.65 64.0177 499.024 63.0079 495.692 63.0079C494.076 63.0079 492.612 63.3361 491.274 63.9924C489.962 64.6488 488.826 65.5576 487.942 66.7188L487.563 67.1985V66.7693V63.538H480.924V89.0856H487.614V75.4787V76.4128C487.614 76.2613 487.614 76.1099 487.614 75.9584C487.69 73.5601 488.27 71.793 489.381 70.657C490.567 69.4453 492.006 68.8394 493.647 68.8394C495.591 68.8394 497.081 69.4453 498.065 70.6065C499.024 71.7678 499.529 73.4087 499.529 75.504V75.5545V89.0604H506.32V74.5699C506.345 70.9347 505.386 68.0568 503.518 66.0372ZM549.968 76.2613C549.968 74.4185 549.64 72.7018 549.009 71.0862C548.352 69.4958 547.444 68.0821 546.308 66.8703C545.146 65.6586 543.758 64.7245 542.142 64.0429C540.527 63.3613 538.734 63.0331 536.79 63.0331C534.948 63.0331 533.206 63.3865 531.59 64.0682C529.974 64.775 528.561 65.7091 527.374 66.8956C526.188 68.0821 525.228 69.4958 524.547 71.1114C523.84 72.7271 523.512 74.4689 523.512 76.3118C523.512 78.1547 523.84 79.8965 524.496 81.5122C525.153 83.1279 526.087 84.5416 527.248 85.7281C528.409 86.9146 529.848 87.8739 531.514 88.5555C533.18 89.2623 535.023 89.6157 536.992 89.6157C542.698 89.6157 546.232 87.0155 548.352 84.5921L543.506 80.9063C542.496 82.1181 540.072 83.759 537.043 83.759C535.15 83.759 533.584 83.3298 532.398 82.4463C531.211 81.5879 530.404 80.3762 529.974 78.8868L529.899 78.6596H549.968V76.2613ZM529.949 73.9136C529.949 72.0455 532.095 68.7889 536.715 68.7637C541.334 68.7637 543.506 72.0202 543.506 73.8883L529.949 73.9136Z" fill="white"/>
</g>
<path d="M596.873 78.2801H599.477V71.9084H605.849V69.3039H599.477V62.9323H596.873V69.3039H590.501V71.9084H596.873V78.2801Z" fill="#93C2DB"/>
<g clip-path="url(#clip2)">
<path d="M680.456 96.7718C666.6 95.4329 652.737 94.0871 638.881 92.7482C638.644 92.6296 638.4 92.5181 638.163 92.3925C636.775 91.6673 636.022 90.3005 636.176 88.7664C637.487 75.1963 638.798 61.6261 640.122 48.063C640.15 47.7492 640.234 47.4284 640.373 47.1495C641.092 45.6851 642.605 44.8622 644.244 45.0226C657.619 46.3197 670.993 47.6097 684.375 48.9068C686.544 49.116 688.085 51.0057 687.876 53.1814C686.586 66.5214 685.289 79.8684 683.999 93.2084C683.873 94.5124 683.239 95.5166 682.109 96.1581C681.6 96.444 681.007 96.5696 680.456 96.7718ZM647.186 76.7723C647.256 76.8001 647.298 76.828 647.34 76.828C648.923 76.9815 650.499 77.1837 652.082 77.2743C653.992 77.3859 655.938 75.8239 656.154 73.962C656.461 71.3888 656.705 68.8017 656.907 66.2146C657.054 64.3318 655.387 62.3862 653.511 62.1631C651.984 61.9818 650.45 61.8563 648.916 61.7098C648.825 61.7029 648.735 61.7238 648.644 61.7307C648.156 66.7655 647.668 71.7654 647.186 76.7723ZM668.107 63.5787C668.107 63.6972 668.086 63.7809 668.1 63.8506C668.811 68.1741 669.501 72.5046 670.254 76.828C670.359 77.4487 670.68 78.0763 671.056 78.5853C671.698 79.464 672.89 79.5686 673.678 78.8224C674.138 78.3831 674.557 77.8252 674.787 77.2395C676.084 73.8923 677.311 70.5241 678.567 67.163C678.866 66.3471 679.166 65.5312 679.473 64.6944C678.434 64.5968 677.465 64.4992 676.447 64.4015C675.247 67.672 674.048 70.9425 672.855 74.213C672.737 74.0108 672.688 73.7946 672.653 73.5854C672.151 70.4683 671.656 67.3513 671.147 64.2342C671.126 64.0947 671 63.8785 670.903 63.8646C669.975 63.746 669.048 63.6693 668.107 63.5787ZM661.029 69.1434C661.098 68.4182 661.154 67.7697 661.231 67.1211C661.287 66.6539 661.217 66.0124 661.489 65.7683C661.726 65.5521 662.367 65.7683 662.828 65.8102C663.943 65.9148 665.052 66.0263 666.182 66.1309C666.273 65.1965 666.356 64.3179 666.447 63.4113C664.432 63.2161 662.458 63.0069 660.478 62.8535C660.15 62.8256 659.766 63.0138 659.467 63.2021C658.867 63.5717 658.727 64.2063 658.665 64.8618C658.33 68.3554 657.988 71.8491 657.653 75.3497C657.626 75.6217 657.612 75.8936 657.612 76.1656C657.612 77.1558 658.281 77.895 659.271 77.9926C661.029 78.1669 662.786 78.3343 664.536 78.5016C664.69 78.5156 664.843 78.5156 664.989 78.5226C665.08 77.6021 665.164 76.7304 665.254 75.803C663.637 75.6495 662.054 75.4961 660.471 75.3427C660.582 74.1712 660.694 73.0624 660.805 71.8979C661.789 71.9955 662.737 72.0862 663.706 72.1768C663.797 71.2354 663.881 70.3568 663.971 69.4363C662.995 69.3317 662.054 69.241 661.029 69.1434Z" fill="white"/>
<path d="M650.157 74.3442C650.47 71.1016 650.777 67.9217 651.084 64.7349C651.76 64.7977 652.444 64.7907 653.085 64.9511C653.832 65.1324 654.201 65.774 654.124 66.6317C653.936 68.7725 653.734 70.9063 653.504 73.0402C653.399 74.0095 652.806 74.5046 651.816 74.4976C651.279 74.4906 650.742 74.4 650.157 74.3442Z" fill="white"/>
</g>
</g>
<defs>
<clipPath id="clip0">
<rect width="602.889" height="51.2125" fill="white" transform="translate(85 45)"/>
</clipPath>
<clipPath id="clip1">
<rect width="90.1234" height="38.0185" fill="white" transform="translate(470.073 51.597)"/>
</clipPath>
<clipPath id="clip2">
<rect width="51.7352" height="51.7701" fill="white" transform="translate(636.154 45)"/>
</clipPath>
</defs>
</svg>
