<svg width="773" height="142" viewBox="0 0 773 142" fill="none" xmlns="http://www.w3.org/2000/svg">
<path d="M0 0H690.091C735.414 0 772.156 36.7416 772.156 82.0646V141.395H82.0645C36.7415 141.395 0 104.653 0 59.3302V0Z" fill="#F1F7FA"/>
<g clip-path="url(#clip0)">
<path d="M44.0725 77.0555H46.4416V69.9102H50.7212C55.2778 69.9102 57.3316 67.1399 57.3316 63.6818C57.3316 60.2238 55.2778 57.4917 50.683 57.4917H44.0725V77.0555ZM46.4416 67.8086V59.5933H50.6065C53.7876 59.5933 55.0008 61.3319 55.0008 63.6818C55.0008 66.0318 53.7876 67.8086 50.6447 67.8086H46.4416Z" fill="#183D5D"/>
<path d="M60.8422 77.0555H63.0966V67.7704C63.0966 65.7834 64.6633 64.3314 66.8031 64.3314C67.4049 64.3314 68.0258 64.446 68.1786 64.4842V62.1916C67.9207 62.1725 67.3285 62.1534 66.9941 62.1534C65.2364 62.1534 63.708 63.1469 63.1731 64.5989H63.0202V62.3827H60.8422V77.0555Z" fill="#183D5D"/>
<path d="M76.5563 77.3612C79.5368 77.3612 81.7148 75.871 82.4026 73.6548L80.2246 73.0434C79.6514 74.5718 78.3236 75.3361 76.5563 75.3361C73.9102 75.3361 72.0857 73.6261 71.9806 70.4833H82.6318V69.528C82.6318 64.0639 79.3839 62.1916 76.3271 62.1916C72.3532 62.1916 69.7166 65.3249 69.7166 69.8337C69.7166 74.3426 72.315 77.3612 76.5563 77.3612ZM71.9806 68.5346C72.1334 66.2515 73.7478 64.2168 76.3271 64.2168C78.7725 64.2168 80.3392 66.0509 80.3392 68.5346H71.9806Z" fill="#183D5D"/>
<path d="M96.4545 65.6688C95.7476 63.5863 94.1619 62.1916 91.2579 62.1916C88.1628 62.1916 85.8702 63.9493 85.8702 66.433C85.8702 68.4581 87.0738 69.8146 89.7677 70.4451L92.2131 71.0183C93.6938 71.3622 94.3911 72.0691 94.3911 73.0816C94.3911 74.3426 93.0538 75.3743 90.9522 75.3743C89.1085 75.3743 87.9527 74.5814 87.5514 73.0052L85.4116 73.5402C85.937 76.0334 87.9909 77.3612 90.9904 77.3612C94.4007 77.3612 96.722 75.4985 96.722 72.967C96.722 70.9227 95.4419 69.6331 92.8245 68.9931L90.6465 68.4581C88.9079 68.0283 88.1246 67.4456 88.1246 66.3184C88.1246 65.0574 89.462 64.1403 91.2579 64.1403C93.2257 64.1403 94.0377 65.2294 94.4294 66.2419L96.4545 65.6688Z" fill="#183D5D"/>
<path d="M106.267 77.3612C109.248 77.3612 111.426 75.871 112.114 73.6548L109.936 73.0434C109.363 74.5718 108.035 75.3361 106.267 75.3361C103.621 75.3361 101.797 73.6261 101.692 70.4833H112.343V69.528C112.343 64.0639 109.095 62.1916 106.038 62.1916C102.064 62.1916 99.4278 65.3249 99.4278 69.8337C99.4278 74.3426 102.026 77.3612 106.267 77.3612ZM101.692 68.5346C101.845 66.2515 103.459 64.2168 106.038 64.2168C108.484 64.2168 110.05 66.0509 110.05 68.5346H101.692Z" fill="#183D5D"/>
<path d="M118.027 68.2289C118.027 65.6688 119.613 64.2168 121.771 64.2168C123.863 64.2168 125.134 65.5828 125.134 67.885V77.0555H127.388V67.7321C127.388 63.9875 125.392 62.1916 122.421 62.1916C120.205 62.1916 118.829 63.1851 118.141 64.6753H117.95V62.3827H115.772V77.0555H118.027V68.2289Z" fill="#183D5D"/>
<path d="M137.889 62.3827H134.756V58.8673H132.501V62.3827H130.285V64.2932H132.501V73.4637C132.501 76.0239 134.565 77.2466 136.475 77.2466C137.316 77.2466 137.851 77.0938 138.157 76.9791L137.698 74.954C137.507 74.9922 137.201 75.0686 136.705 75.0686C135.711 75.0686 134.756 74.7629 134.756 72.8524V64.2932H137.889V62.3827Z" fill="#183D5D"/>
<path d="M147.275 77.3612C150.255 77.3612 152.433 75.871 153.121 73.6548L150.943 73.0434C150.37 74.5718 149.042 75.3361 147.275 75.3361C144.629 75.3361 142.804 73.6261 142.699 70.4833H153.35V69.528C153.35 64.0639 150.102 62.1916 147.045 62.1916C143.072 62.1916 140.435 65.3249 140.435 69.8337C140.435 74.3426 143.033 77.3612 147.275 77.3612ZM142.699 68.5346C142.852 66.2515 144.466 64.2168 147.045 64.2168C149.491 64.2168 151.058 66.0509 151.058 68.5346H142.699Z" fill="#183D5D"/>
<path d="M162.32 77.3612C165.148 77.3612 166.103 75.6035 166.6 74.8011H166.867V77.0555H169.045V57.4917H166.791V64.7135H166.6C166.103 63.9493 165.224 62.1916 162.358 62.1916C158.652 62.1916 156.092 65.1338 156.092 69.7573C156.092 74.419 158.652 77.3612 162.32 77.3612ZM162.626 75.3361C159.798 75.3361 158.346 72.8524 158.346 69.7191C158.346 66.624 159.76 64.2168 162.626 64.2168C165.377 64.2168 166.829 66.433 166.829 69.7191C166.829 73.0434 165.339 75.3361 162.626 75.3361Z" fill="#183D5D"/>
<path d="M181.359 77.0555H183.537V74.8011H183.804C184.301 75.6035 185.256 77.3612 188.084 77.3612C191.752 77.3612 194.312 74.419 194.312 69.7573C194.312 65.1338 191.752 62.1916 188.045 62.1916C185.18 62.1916 184.301 63.9493 183.804 64.7135H183.613V57.4917H181.359V77.0555ZM183.575 69.7191C183.575 66.433 185.027 64.2168 187.778 64.2168C190.644 64.2168 192.058 66.624 192.058 69.7191C192.058 72.8524 190.606 75.3361 187.778 75.3361C185.065 75.3361 183.575 73.0434 183.575 69.7191Z" fill="#183D5D"/>
<path d="M198.687 82.5197C200.722 82.5197 202.164 81.4402 203.005 79.1953L209.252 62.4209L206.788 62.3827L202.737 74.0751H202.585L198.534 62.3827H196.089L201.515 77.132L201.094 78.2783C200.292 80.4754 199.26 80.6856 197.617 80.2652L197.044 82.2522C197.273 82.3668 197.923 82.5197 198.687 82.5197Z" fill="#183D5D"/>
<path fill-rule="evenodd" clip-rule="evenodd" d="M255.662 91.3407V83.0778C264.503 83.0778 271.339 74.3988 267.964 65.1804C266.714 61.7659 263.967 59.0427 260.524 57.8032C251.231 54.4589 242.483 61.2368 242.481 70.004C242.481 70.004 242.48 70.0061 242.479 70.0061H234.15C234.15 56.0361 247.758 45.1587 262.518 49.7286C268.968 51.7258 274.093 56.8092 276.107 63.2062C280.714 77.845 269.747 91.3407 255.662 91.3407Z" fill="#183D5D"/>
<path fill-rule="evenodd" clip-rule="evenodd" d="M254.37 83.3439H246.064V75.1084C246.064 75.1084 246.064 75.1067 246.065 75.1067H254.369C254.37 75.1067 254.37 75.1076 254.37 75.1076V83.3439H254.37ZM246.062 89.6738H239.682L239.68 89.6721V83.3439H246.064V89.6721L246.062 89.6738ZM239.685 83.3439H234.337C234.334 83.3439 234.333 83.3422 234.333 83.3422V78.0402C234.333 78.0402 234.334 78.0365 234.337 78.0365H239.681C239.683 78.0365 239.685 78.0381 239.685 78.0381V83.3439V83.3439ZM297.074 62.8461H299.522C302.245 62.8461 304.486 63.3775 306.186 64.4263C308.073 65.5547 309.03 67.7017 309.03 70.8068C309.03 74.0058 308.07 76.2494 306.179 77.4769H306.178C304.55 78.5449 302.322 79.0866 299.556 79.0866H297.074V62.8461ZM309.429 61.2528C306.965 59.5579 303.9 58.6985 300.318 58.6985H292.52V83.2344H300.318C303.891 83.2344 306.957 82.3271 309.432 80.5396C310.778 79.5924 311.835 78.2683 312.576 76.6051C313.312 74.9512 313.686 73.0004 313.686 70.807C313.686 68.6394 313.312 66.7137 312.575 65.0826C311.835 63.4441 310.776 62.1559 309.429 61.2529V61.2528ZM319.114 58.3965C318.364 58.3965 317.718 58.6602 317.198 59.1763C316.672 59.6735 316.405 60.3038 316.405 61.049C316.405 61.7925 316.671 62.4325 317.194 62.9524C317.718 63.4719 318.364 63.736 319.114 63.736C319.862 63.736 320.508 63.4719 321.032 62.9524C321.557 62.4318 321.823 61.7916 321.823 61.049C321.823 60.3047 321.555 59.6747 321.032 59.1801C320.508 58.6602 319.862 58.3965 319.114 58.3965V58.3965ZM316.879 83.2343H321.263V65.9535H316.879V83.2343ZM336.036 77.6031C335.27 78.466 334.285 78.8846 333.028 78.8846C331.771 78.8846 330.792 78.4661 330.038 77.6038C329.286 76.7464 328.904 75.6093 328.904 74.224C328.904 72.8171 329.286 71.6656 330.038 70.8018C330.783 69.9469 331.789 69.5131 333.028 69.5131C334.285 69.5131 335.269 69.9346 336.035 70.8036C336.799 71.6674 337.186 72.818 337.186 74.224C337.186 75.6084 336.799 76.7452 336.036 77.6031ZM337.186 67.397C335.864 66.2308 334.387 65.5501 332.791 65.5501C330.371 65.5501 328.359 66.3809 326.813 68.0168C325.247 69.6393 324.452 71.7281 324.452 74.224C324.452 76.6639 325.234 78.7453 326.78 80.4142C328.338 82.029 330.36 82.8476 332.791 82.8476C334.481 82.8476 335.934 82.381 337.118 81.4591V81.8568C337.118 83.2908 336.731 84.406 335.968 85.1724C335.205 85.9373 334.148 86.3247 332.825 86.3247C330.801 86.3247 329.533 85.536 327.989 83.4659L325.003 86.311L325.084 86.423C325.729 87.3209 326.716 88.1995 328.02 89.0342C329.324 89.8657 330.963 90.2878 332.893 90.2878C335.495 90.2878 337.601 89.4919 339.152 87.9231C340.711 86.3458 341.502 84.2335 341.502 81.6472V65.9535H337.186V67.397H337.186ZM345.254 83.2343H349.639V65.9535H345.254V83.2343ZM347.489 58.3965C346.739 58.3965 346.094 58.6602 345.573 59.1763C345.047 59.6735 344.78 60.3038 344.78 61.049C344.78 61.7925 345.046 62.4325 345.57 62.9524C346.094 63.4719 346.739 63.736 347.489 63.736C348.238 63.736 348.883 63.4719 349.407 62.9524C349.932 62.4318 350.198 61.7916 350.198 61.049C350.198 60.3047 349.931 59.6747 349.407 59.1801C348.883 58.6602 348.238 58.3965 347.489 58.3965H347.489ZM359.248 61.2839H354.932V65.9535H352.426V69.9165H354.932V77.0946C354.932 79.3407 355.384 80.9481 356.277 81.8708C357.172 82.7979 358.762 83.2679 361.002 83.2679C361.714 83.2679 362.431 83.2448 363.132 83.1992L363.329 83.1862V79.226L361.826 79.3041C360.782 79.3041 360.085 79.1221 359.754 78.7643C359.418 78.4007 359.248 77.631 359.248 76.4781V69.9166H363.329V65.9535H359.248V61.2838V61.2839ZM383.887 83.2343H388.272V58.6987H383.887V83.2343ZM432.566 77.055C431.782 77.9268 430.979 78.6825 430.361 79.0754V79.0761C429.755 79.4618 428.99 79.6576 428.088 79.6576C426.796 79.6576 425.757 79.191 424.911 78.2297C424.069 77.2739 423.643 76.0456 423.643 74.5767C423.643 73.1079 424.064 71.8812 424.895 70.9323C425.73 69.9773 426.763 69.5131 428.054 69.5131C429.466 69.5131 430.955 70.3842 432.231 71.8799L435.129 69.1241C433.239 66.6852 430.829 65.5501 427.952 65.5501C425.545 65.5501 423.458 66.4201 421.75 68.1342C420.052 69.8365 419.19 72.004 419.19 74.5767C419.19 77.1495 420.051 79.3226 421.748 81.0358C423.447 82.751 425.535 83.6207 427.952 83.6207C431.127 83.6207 433.689 82.2615 435.416 79.7716L432.566 77.055ZM440.978 72.4361C441.189 71.6099 441.573 70.9213 442.123 70.3865C442.717 69.8068 443.49 69.5131 444.422 69.5131C445.484 69.5131 446.307 69.8128 446.867 70.4057C447.385 70.9542 447.678 71.6369 447.739 72.436H440.978V72.4361ZM450.561 68.3675C449.939 67.5085 449.092 66.8168 448.043 66.3113C446.997 65.8061 445.778 65.55 444.42 65.55C441.973 65.55 439.97 66.446 438.467 68.2134C437.007 69.9677 436.268 72.1479 436.268 74.694C436.268 77.3132 437.079 79.4808 438.68 81.1367C440.272 82.7849 442.403 83.6207 445.013 83.6207C447.969 83.6207 450.396 82.4349 452.224 80.0956L452.323 79.9699L449.462 77.2435C449.197 77.5609 448.822 77.9204 448.479 78.2411C448.046 78.6463 447.639 78.9597 447.204 79.1745C446.549 79.498 445.814 79.6576 444.992 79.6576C443.777 79.6576 442.771 79.3032 442.001 78.6038C441.282 77.9504 440.862 77.0685 440.75 75.9794H452.366L452.405 74.3924C452.405 73.2691 452.251 72.1867 451.947 71.1752C451.646 70.1682 451.177 69.219 450.561 68.3675H450.561ZM459.614 76.6305C460.111 76.2865 460.814 76.1136 461.702 76.1136C462.758 76.1136 463.877 76.3233 465.031 76.7384V78.4335C464.078 79.3121 462.805 79.7576 461.246 79.7576C460.487 79.7576 459.897 79.5905 459.492 79.2597C459.093 78.9361 458.9 78.5243 458.9 78.0026C458.9 77.4098 459.133 76.9604 459.614 76.6305H459.614ZM467.398 67.2464H467.398C466.069 66.1214 464.232 65.55 461.939 65.55C460.48 65.55 459.116 65.8682 457.882 66.4886C456.741 67.0629 455.619 68.0135 454.907 69.2583L454.952 69.3114L457.759 71.9769C458.915 70.1482 460.201 69.5133 461.906 69.5133C462.822 69.5133 463.583 69.7571 464.167 70.2377C464.748 70.715 465.031 71.3217 465.031 72.0914V72.9302C463.944 72.6022 462.859 72.436 461.804 72.436C459.623 72.436 457.847 72.9454 456.528 73.9488C455.192 74.9657 454.515 76.4199 454.515 78.2714C454.515 79.8951 455.086 81.2143 456.216 82.1945C457.356 83.1402 458.78 83.6207 460.45 83.6207C462.119 83.6207 463.681 82.9536 465.098 81.8114V83.2343H469.415V72.1251C469.415 70.0216 468.737 68.3805 467.398 67.2464V67.2464ZM486.282 67.5847C485.061 66.2354 483.345 65.55 481.181 65.55C479.441 65.55 478.029 66.0454 476.972 67.0231V65.9535H472.672V83.2343H477.057V73.7038C477.057 72.3943 477.371 71.3546 477.991 70.6129C478.608 69.8727 479.458 69.5131 480.588 69.5131C481.581 69.5131 482.334 69.8347 482.889 70.4956C483.447 71.1596 483.729 72.0745 483.729 73.2168V83.2343H488.114V73.2168C488.114 70.8233 487.498 68.9291 486.282 67.5847ZM370.592 76.6305C371.09 76.2865 371.793 76.1136 372.681 76.1136C373.737 76.1136 374.856 76.3233 376.01 76.7384V78.4335C375.057 79.3121 373.784 79.7576 372.225 79.7576C371.466 79.7576 370.876 79.5905 370.471 79.2597C370.072 78.9361 369.879 78.5243 369.879 78.0026C369.879 77.4098 370.112 76.9604 370.592 76.6305ZM378.377 67.2464H378.376C377.048 66.1214 375.211 65.55 372.918 65.55C371.459 65.55 370.095 65.8682 368.861 66.4886C367.719 67.0629 366.598 68.0135 365.886 69.2583L365.93 69.3114L368.738 71.9769C369.894 70.1482 371.18 69.5133 372.885 69.5133C373.801 69.5133 374.561 69.7571 375.146 70.2377C375.727 70.715 376.01 71.3217 376.01 72.0914V72.9302C374.922 72.6022 373.838 72.436 372.783 72.436C370.601 72.436 368.826 72.9454 367.507 73.9488C366.171 74.9657 365.494 76.4199 365.494 78.2714C365.494 79.8951 366.065 81.2143 367.195 82.1945C368.335 83.1402 369.759 83.6207 371.429 83.6207C373.098 83.6207 374.659 82.9536 376.077 81.8114V83.2343H380.394V72.1251C380.394 70.0216 379.716 68.3805 378.377 67.2464H378.377ZM404.18 62.7647C399.626 62.7647 395.921 66.4387 395.921 70.9554C395.921 75.4721 399.626 79.1462 404.18 79.1462C408.733 79.1462 412.438 75.4721 412.438 70.9554C412.438 66.4387 408.733 62.7647 404.18 62.7647ZM404.18 83.6034C397.147 83.6034 391.427 77.9297 391.427 70.9554C391.427 63.9808 397.147 58.307 404.18 58.307C411.212 58.307 416.932 63.9808 416.932 70.9554C416.932 77.9297 411.212 83.6034 404.18 83.6034Z" fill="#183D5D"/>
<path d="M518.246 76.3104H520.386V71.0755H525.621V68.9357H520.386V63.7009H518.246V68.9357H513.011V71.0755H518.246V76.3104Z" fill="#183D5D"/>
<g clip-path="url(#clip1)">
<path d="M556.346 54.8317H550.518V60.6597H556.346V54.8317Z" fill="#183D5D"/>
<path d="M556.197 85.1879V64.1986H550.68V85.1879H556.197ZM592.867 85.3953V80.2517C592.058 80.2517 591.373 80.2102 590.876 80.1273C590.295 80.0443 589.859 79.8369 589.569 79.5465C589.278 79.2562 589.092 78.8414 588.988 78.3021C588.905 77.7836 588.864 77.0992 588.864 76.2695V68.9274H592.867V64.1986H588.864V56.0061H583.326V76.311C583.326 78.0325 583.471 79.4843 583.762 80.6458C584.052 81.7865 584.55 82.7198 585.234 83.425C585.919 84.1302 586.831 84.6279 587.93 84.9391C589.05 85.2502 590.461 85.3953 592.141 85.3953H592.867ZM624.558 85.1879V54.3883H619.02V85.1879H624.558ZM577.996 66.2519C576.461 64.5926 574.304 63.763 571.566 63.763C570.239 63.763 569.036 64.0326 567.937 64.5719C566.858 65.1111 565.925 65.8578 565.199 66.8119L564.888 67.2059V66.8533V64.1986H559.433V85.1879H564.929V74.0088V74.7762C564.929 74.6518 564.929 74.5273 564.929 74.4029C564.991 72.4325 565.468 70.9807 566.381 70.0474C567.356 69.0518 568.538 68.5541 569.886 68.5541C571.483 68.5541 572.707 69.0518 573.516 70.0059C574.304 70.96 574.719 72.3081 574.719 74.0296V74.071V85.1672H580.298V73.2622C580.319 70.2755 579.53 67.9111 577.996 66.2519ZM616.158 74.6518C616.158 73.1377 615.889 71.7274 615.37 70.4C614.831 69.0933 614.084 67.9319 613.151 66.9363C612.197 65.9408 611.056 65.1734 609.729 64.6134C608.401 64.0534 606.929 63.7838 605.332 63.7838C603.818 63.7838 602.386 64.0741 601.059 64.6341C599.732 65.2148 598.57 65.9822 597.595 66.957C596.621 67.9319 595.832 69.0933 595.273 70.4207C594.692 71.7481 594.422 73.1792 594.422 74.6933C594.422 76.2073 594.692 77.6384 595.231 78.9658C595.77 80.2932 596.538 81.4547 597.492 82.4295C598.446 83.4043 599.628 84.1924 600.997 84.7524C602.366 85.3331 603.88 85.6235 605.498 85.6235C610.185 85.6235 613.089 83.4872 614.831 81.4961L610.849 78.468C610.019 79.4636 608.028 80.8117 605.539 80.8117C603.984 80.8117 602.698 80.4591 601.723 79.7332C600.748 79.028 600.084 78.0325 599.732 76.8088L599.669 76.6221H616.158V74.6518ZM599.711 72.7229C599.711 71.1881 601.474 68.5126 605.269 68.4918C609.065 68.4918 610.849 71.1674 610.849 72.7022L599.711 72.7229Z" fill="#183D5D"/>
</g>
<path d="M654.694 76.3104H656.834V71.0755H662.069V68.9357H656.834V63.7009H654.694V68.9357H649.459V71.0755H654.694V76.3104Z" fill="#183D5D"/>
<g clip-path="url(#clip2)">
<path d="M723.365 91.5032C711.981 90.4032 700.592 89.2975 689.208 88.1975C689.013 88.1001 688.812 88.0085 688.618 87.9053C687.478 87.3095 686.859 86.1866 686.985 84.9262C688.062 73.7772 689.139 62.6283 690.228 51.4851C690.251 51.2273 690.319 50.9637 690.434 50.7346C691.024 49.5314 692.267 48.8554 693.614 48.9872C704.602 50.0528 715.591 51.1127 726.585 52.1783C728.367 52.3502 729.633 53.9028 729.461 55.6903C728.401 66.6502 727.335 77.6158 726.275 88.5756C726.172 89.647 725.651 90.472 724.723 90.9991C724.305 91.234 723.818 91.3371 723.365 91.5032ZM696.031 75.072C696.089 75.0949 696.123 75.1179 696.157 75.1179C697.458 75.2439 698.753 75.41 700.053 75.4845C701.623 75.5762 703.221 74.2929 703.399 72.7632C703.651 70.6491 703.852 68.5236 704.018 66.3981C704.138 64.8512 702.769 63.2528 701.228 63.0694C699.973 62.9205 698.712 62.8174 697.452 62.697C697.378 62.6913 697.303 62.7085 697.229 62.7142C696.828 66.8507 696.427 70.9585 696.031 75.072ZM713.219 64.2325C713.219 64.3298 713.202 64.3986 713.213 64.4559C713.797 68.008 714.365 71.5658 714.983 75.1179C715.069 75.6277 715.333 76.1434 715.642 76.5616C716.169 77.2835 717.149 77.3694 717.796 76.7564C718.174 76.3955 718.518 75.9371 718.707 75.4559C719.773 72.7059 720.781 69.9387 721.812 67.1772C722.059 66.5069 722.305 65.8366 722.557 65.1491C721.704 65.0689 720.907 64.9887 720.071 64.9085C719.085 67.5955 718.1 70.2824 717.12 72.9694C717.023 72.8033 716.983 72.6257 716.954 72.4538C716.542 69.8929 716.135 67.3319 715.717 64.771C715.699 64.6564 715.596 64.4788 715.516 64.4673C714.754 64.37 713.992 64.3069 713.219 64.2325ZM707.404 68.8043C707.461 68.2085 707.507 67.6757 707.57 67.1429C707.616 66.759 707.558 66.2319 707.782 66.0314C707.977 65.8538 708.504 66.0314 708.882 66.0658C709.798 66.1517 710.709 66.2434 711.637 66.3293C711.712 65.5616 711.781 64.8397 711.855 64.095C710.199 63.9345 708.578 63.7627 706.951 63.6366C706.682 63.6137 706.367 63.7684 706.12 63.9231C705.628 64.2267 705.513 64.7481 705.461 65.2866C705.186 68.1569 704.906 71.0272 704.631 73.9033C704.608 74.1267 704.596 74.3501 704.596 74.5736C704.596 75.3871 705.146 75.9944 705.96 76.0746C707.404 76.2179 708.847 76.3553 710.285 76.4928C710.411 76.5043 710.537 76.5043 710.658 76.51C710.732 75.7538 710.801 75.0376 710.876 74.2757C709.546 74.1496 708.246 74.0236 706.945 73.8975C707.037 72.935 707.129 72.0241 707.22 71.0673C708.028 71.1475 708.807 71.222 709.604 71.2965C709.678 70.5231 709.747 69.8012 709.821 69.0449C709.019 68.959 708.246 68.8845 707.404 68.8043Z" fill="#183D5D"/>
<path d="M698.471 73.0767C698.729 70.4126 698.981 67.8001 699.233 65.1819C699.789 65.2334 700.35 65.2277 700.877 65.3595C701.49 65.5084 701.794 66.0355 701.731 66.7402C701.576 68.4991 701.41 70.2522 701.221 72.0053C701.135 72.8017 700.648 73.2084 699.835 73.2027C699.393 73.197 698.952 73.1225 698.471 73.0767Z" fill="#183D5D"/>
</g>
</g>
<defs>
<clipPath id="clip0">
<rect width="685.399" height="42.0751" fill="white" transform="translate(44.0725 48.9681)"/>
</clipPath>
<clipPath id="clip1">
<rect width="74.0436" height="31.2352" fill="white" transform="translate(550.518 54.3881)"/>
</clipPath>
<clipPath id="clip2">
<rect width="42.5046" height="42.5333" fill="white" transform="translate(686.966 48.9681)"/>
</clipPath>
</defs>
</svg>
