<svg width="956" height="1136" viewBox="0 0 956 1136" fill="none" xmlns="http://www.w3.org/2000/svg">
<path d="M441.954 666.891C437.85 670.522 435.272 673.1 435.287 674.138C432.129 727.538 432.754 739.927 432.831 749.249C458.341 764.277 491.067 773.66 522.726 781.289C526.189 762.645 525.548 748.654 525.121 699.968C500.176 689.166 473.659 679.325 441.954 666.891Z" fill="#677662"/>
<path d="M518.652 552.417C493.188 541.538 465.145 533.757 434.02 528.585C430.832 579.864 430.832 579.864 430.969 589.186C456.998 604.215 484.552 615.612 514.182 627.528C516.043 608.868 519.079 601.133 518.652 552.417Z" fill="#677662"/>
<path d="M537.251 393.375C538.227 368.796 537.754 334.788 537.617 318.966C529.332 315.427 515.509 312.863 505.058 311.048C504.02 328.563 504.478 361.564 504.676 382.94C512.961 387.822 526.815 390.858 537.251 393.375Z" fill="#677662"/>
<path d="M823.703 531.284L532.826 118.227C508.2 83.2576 456.265 83.2576 431.03 118.227L132.92 531.284C125.283 541.812 121.117 554.458 121.002 567.463C120.888 580.469 124.829 593.187 132.279 603.847L423.157 1016.9C447.782 1051.87 499.717 1051.87 524.953 1016.9L823.062 603.847C830.699 593.32 834.865 580.674 834.98 567.668C835.095 554.663 831.153 541.945 823.703 531.284ZM526.402 287.475C533.512 292.525 553.301 302.457 562.745 304.822C562.943 327.891 563.462 366.949 565.4 397.25L515.905 417.084C508.795 412.034 489.007 402.102 479.563 399.752C479.273 365.744 478.754 327.189 476.908 307.309L526.402 287.475ZM371.847 287.475H400.47C400.348 291.35 400.042 295.225 399.417 301.45C405.596 294.554 414.75 284.118 414.75 284.118C421.875 289.168 443.342 299.101 452.786 301.45C453.092 335.459 453.534 386.814 455.487 417.115L426.834 413.758C428.253 383.442 427.932 346.749 427.704 319.805C420.579 315.09 409.395 311.718 399.829 309.033C399.264 342.37 400.012 389.347 401.583 413.758H372.961C374.365 381.932 373.8 317.791 371.847 287.475ZM462.246 854.401C440.352 838.853 384.648 808.293 355.583 801C355.171 753.337 357.338 705.155 348.687 664.235C364.707 659.658 382.253 653.357 399.829 647.666C382.695 642.479 366.08 638.863 354.134 635.75C353.722 588.087 356.041 557.527 347.405 516.607L494.5 455.471C516.394 471.018 561.723 501.579 590.803 508.872C591.413 579.848 592.573 592.282 597.546 628.03L555.711 643.043C572.845 648.23 589.475 653.403 602.444 656.515C603.069 727.476 604.366 757.533 609.34 793.265L462.246 854.401ZM599.56 417.603L576.675 402.621L596.692 380.742L619.898 395.999L599.56 417.603Z" fill="#677662"/>
</svg>
