<svg width="1000" height="1000" viewBox="0 0 1000 1000" fill="none" xmlns="http://www.w3.org/2000/svg">
<path d="M500 185.659C254.264 185.659 55.0576 326.393 55.0576 499.993C55.0576 673.594 254.264 814.34 500 814.34C745.736 814.34 944.942 673.607 944.942 499.993C944.942 326.379 745.736 185.659 500 185.659ZM652.285 496.48C652.285 499.952 653.217 504.157 650.543 506.911C650.543 506.911 634.443 511.143 627.933 517.112C620.707 523.745 612.468 535.451 612.644 547.727C612.063 564.805 611.874 581.896 611.82 598.988C611.82 598.988 613.17 632.899 646.329 634.636C646.643 634.607 646.96 634.607 647.274 634.636C648.166 635.992 649.827 637.349 649.84 638.705C649.503 655.675 650.219 672.251 649.07 689.817C648.989 690.902 649.665 691.892 648.881 692.123C645.883 693.032 641.115 692.72 638.319 692.855C619.599 693.683 591.857 679.169 587.994 676.211C583.159 672.508 572.354 660.178 572.354 660.178C549.906 684.079 527.445 695.826 494.26 690.712C494.138 673.01 494.098 655.295 493.841 637.593C491.896 627.379 528.228 639.126 532.307 600.399C533.023 581.069 532.307 561.59 532.659 542.22C532.51 541.772 531.659 540.863 531.024 541.162C480.861 540.606 430.658 540.483 380.401 540.47C379.901 541.542 378.928 542.613 378.955 543.671C379.185 554.835 379.806 565.985 379.968 577.149C380.576 588.719 379.077 600.005 385.884 610.301C392.165 621.152 401.065 630.227 413.235 633.537C418.435 634.052 418.867 637.389 418.867 641.771C419.056 658.388 419.61 675.004 420.028 691.634C405.59 691.824 391.287 691.634 377.308 686.358C363.328 681.081 356.021 673.376 346.513 663.705C346.158 663.343 345.729 663.065 345.255 662.89C344.781 662.714 344.274 662.646 343.771 662.69C343.268 662.734 342.781 662.89 342.344 663.145C341.907 663.4 341.532 663.749 341.245 664.166C323.43 690.793 291.623 691.295 269.351 690.387C265.974 690.237 263.259 690.387 264.786 685.693C264.867 668.547 264.11 651.212 263.894 634.012C264.068 632.977 264.411 631.978 264.907 631.055C283.114 632.411 301.158 617.192 301.793 600.317C301.793 593.82 301.793 587.322 301.888 580.825C302.104 546.316 307.709 514.358 264.488 502.95C264.083 500.508 264.677 498.08 264.286 495.639C283.803 491.786 299.078 474.017 301.293 454.551C300.578 420.477 309.532 366.381 263.259 361.349C261.693 344.583 262.57 325.877 262.868 310.82C262.989 304.865 266.136 304.377 271.147 304.323C278.9 304.255 284.924 304.404 291.812 304.323C310.721 310.427 328.401 323.951 338.058 341.951C339.517 344.664 340.989 344.054 341.934 341.734C351.389 320.722 375.336 308.813 396.878 307.7L396.986 307.917C402.389 307.768 407.792 307.28 413.262 307.565C414.383 309.26 418.664 307.416 417.638 311.512C416.76 329.919 416.76 348.408 417.084 366.693C373.242 373.909 380.617 405.61 380.509 440.485C380.509 446.426 380.617 459.977 381.035 462.46C381.035 462.46 465.153 461.646 507.212 461.659C514.452 461.551 521.718 460.872 528.931 461.09C531.727 461.659 532.442 460.547 532.415 457.712C531.51 419.731 541.154 380.57 495.718 365.879C496.164 345.939 497.191 325.972 497.326 306.046C526.392 302.18 555.16 317.535 570.396 342.358C573.272 347.079 573.84 346.862 577.297 342.358C588.346 326.081 605.215 316.097 623.543 310.549C632.525 307.836 642.277 309.505 649.125 309.559C652.407 309.559 653.663 310.318 653.555 313.818C653.339 320.899 653.555 328.007 653.555 335.087C653.447 349.615 653.041 362.488 651.88 367.643C617.938 368.687 613.751 389.088 612.32 418.049C612.333 451.961 608.713 491.529 652.285 496.48ZM774.95 645.691H754.839V560.79L729.177 572.062L724.828 555.689L754.893 542.41H774.95V645.691ZM799.262 465.973V481.979H713.361V466.732C713.361 440.96 735.282 428.751 758.094 422.539C762.984 421.264 781.46 416.53 781.46 405.068C781.46 396.345 770.655 393.063 760.269 393.063C744.52 393.063 734.917 399.981 725.314 408.35L713.537 394.162C725.693 384.517 738.172 375.239 759.729 375.239C780.556 375.239 801.599 383.974 801.599 404.525C801.599 429.633 773.343 435.819 758.675 440.363C744.899 444.731 733.499 450.55 733.499 464.915V466.014L799.262 465.973Z" fill="#B53A25"/>
</svg>
