<svg width="1000" height="1000" viewBox="0 0 1000 1000" fill="none" xmlns="http://www.w3.org/2000/svg">
<g clip-path="url(#clip0)">
<path d="M434.14 56.035C438.788 56.289 444.452 57.871 444.198 64.9608C442.753 105.293 442.714 146.875 443.652 186.953C443.678 188.203 443.262 189.423 442.475 190.395C441.689 191.368 440.583 192.03 439.355 192.266C344.296 210.683 356.698 280.547 357.05 358.652C357.05 370.039 357.441 385.605 358.144 396.152C358.228 397.326 358.759 398.424 359.627 399.219C360.495 400.015 361.635 400.448 362.812 400.43C391.523 399.98 559.003 400.84 646.601 400.293C663.105 399.941 678.613 399.824 695.097 399.766C701.738 399.766 704.179 397.402 704.081 390.957C701.464 305.859 719.472 224.609 621.093 190.82C619.711 190.344 618.514 189.444 617.672 188.248C616.831 187.053 616.387 185.622 616.406 184.16C616.913 142.148 615.683 100.762 615.605 58.7694C615.606 57.4579 616.091 56.193 616.967 55.2165C617.842 54.2401 619.047 53.6206 620.351 53.4765C685.175 46.4452 756.249 79.7069 790.976 132.754C795.683 139.922 799.667 140.781 804.862 132.617C833.027 88.4179 868.202 72.4804 909.96 59.6093C930.429 53.2811 952.714 56.953 968.339 56.9725C975.839 56.9725 978.71 58.6522 978.515 66.5819C978.144 82.6952 978.73 98.828 978.906 114.961C978.906 143.535 978.769 169.238 978.612 183.32C978.572 184.825 977.97 186.26 976.926 187.344C975.882 188.428 974.47 189.083 972.968 189.18C900.39 194.101 888.671 239.883 885.917 304.121C886.347 380.078 878.886 468.711 974.355 481.23C975.401 481.379 976.363 481.887 977.076 482.667C977.789 483.448 978.208 484.452 978.261 485.508C978.417 488.672 979.023 493.848 979.159 496.992C979.374 502.402 978.3 505.351 973.105 506.875C962.07 510.117 934.277 518.418 922.89 528.965C906.484 544.121 887.87 570.879 888.437 598.769C887.382 637.578 887.187 676.445 887.343 715.273C887.343 715.273 893.476 786.504 966.64 795.801C972.675 796.562 974.667 797.851 974.726 805.098C974.98 843.691 976.093 881.269 973.71 921.289C973.573 923.769 971.913 927.656 968.73 928.183C962.245 928.955 955.696 929.013 949.198 928.359C898.144 925.957 857.109 908.984 834.101 891.25C826.288 885.195 811.113 869.766 803.183 861.074C802.594 860.414 801.875 859.884 801.07 859.515C800.266 859.147 799.394 858.95 798.51 858.935C797.626 858.92 796.748 859.089 795.932 859.43C795.116 859.771 794.379 860.278 793.769 860.918C744.823 911.348 693.241 936.172 620.37 925.488C619.843 885.254 618.671 846.973 618.613 806.348C618.613 800.605 621.034 797.91 624.902 796.406C642.909 789.375 698.613 792.812 705.878 719.609C707.206 675.664 705.409 639.531 705.878 595.449C705.546 594.414 703.593 592.461 702.148 593.066C587.616 592.558 454.101 592.871 360.722 593.75C356.913 593.75 355.019 594.746 355.038 599.18C355.214 624.57 357.304 643.672 357.851 669.043C359.413 695.351 361.288 718.711 371.952 744.609C382.363 769.844 402.128 788.301 436.542 796.68C443.437 798.359 447.187 802.285 447.577 810.215C449.53 847.969 449.804 890.879 450.995 928.652C418.046 929.316 385.39 928.984 353.339 917.285C320.956 905.469 304.511 888.144 282.695 866.308C281.876 865.48 280.882 864.846 279.786 864.451C278.69 864.056 277.52 863.912 276.361 864.028C275.202 864.144 274.083 864.518 273.087 865.122C272.091 865.726 271.243 866.545 270.605 867.519C230.351 928.183 159.823 928.574 105.37 928.066C97.5578 928.066 96.7961 925.195 96.4836 917.461C94.882 878.516 94.5305 839.101 93.6711 800.019C93.5974 799.15 93.7065 798.276 93.9911 797.451C94.2758 796.627 94.7298 795.872 95.324 795.233C95.9182 794.595 96.6393 794.088 97.4412 793.745C98.243 793.402 99.1077 793.231 99.9797 793.242C143.847 791.289 178.105 761.484 178.71 727.558C179.042 712.891 179.687 693.359 179.687 678.652C179.687 600.215 184.023 541.816 93.2024 510.098C91.718 509.59 93.2024 495.273 92.7336 488.809C92.7012 488.445 92.8022 488.082 93.0179 487.787C93.2335 487.492 93.549 487.286 93.9055 487.207C137.773 477.578 171.718 436.562 176.445 392.715C174.355 317.363 192.89 207.793 96.3664 191.543C93.9808 191.177 91.7903 190.011 90.1543 188.237C88.5183 186.462 87.5339 184.185 87.3625 181.777C85.9953 152.656 86.0735 97.3046 86.5031 65.6444C86.6985 52.1093 91.1711 50.9765 102.597 50.7811C119.209 50.2804 135.835 50.9919 152.343 52.91C191.113 57.8905 236.327 94.5507 258.71 135.312C262.089 141.543 265.429 140.078 267.558 134.785C288.945 86.8749 343.3 59.453 392.558 56.66L434.14 56.035Z" fill="#2D3837"/>
<path d="M482.891 712.754H482.539C474.528 712.69 466.716 710.251 460.091 705.746C453.466 701.24 448.327 694.87 445.325 687.442C442.322 680.015 441.59 671.863 443.222 664.019C444.854 656.176 448.776 648.992 454.493 643.379C462.026 635.868 472.233 631.653 482.872 631.66H483.223C488.554 631.698 493.826 632.789 498.734 634.868C503.643 636.948 508.094 639.977 511.83 643.78C515.566 647.583 518.514 652.086 520.506 657.032C522.498 661.977 523.495 667.267 523.438 672.598L510.625 672.481L523.438 672.598C523.345 683.277 519.039 693.487 511.457 701.007C503.874 708.527 493.629 712.749 482.95 712.754H482.891ZM482.891 657.363C478.944 657.345 475.151 658.896 472.347 661.674C469.543 664.452 467.958 668.231 467.94 672.178C467.922 676.125 469.472 679.918 472.251 682.722C475.029 685.525 478.807 687.111 482.754 687.129H482.891C486.749 687.005 490.408 685.39 493.098 682.623C495.789 679.855 497.3 676.152 497.316 672.293C497.331 668.433 495.848 664.719 493.18 661.93C490.511 659.142 486.865 657.498 483.008 657.344L482.891 657.363Z" fill="#B53A25"/>
<path d="M482.891 536.094H482.539C477.22 536.072 471.957 535.003 467.05 532.947C462.144 530.891 457.691 527.889 453.945 524.112C446.379 516.484 442.154 506.164 442.198 495.42C442.242 484.677 446.552 474.391 454.179 466.826C461.807 459.26 472.128 455.034 482.871 455.078H483.223C493.973 455.166 504.249 459.52 511.79 467.182C519.331 474.844 523.521 485.187 523.438 495.938L510.625 495.821L523.438 495.938C523.345 506.617 519.039 516.827 511.457 524.347C503.874 531.868 493.629 536.089 482.95 536.094H482.891ZM482.891 480.703C478.944 480.685 475.151 482.236 472.347 485.014C469.543 487.792 467.958 491.571 467.94 495.518C467.922 499.465 469.472 503.258 472.251 506.062C475.029 508.866 478.807 510.451 482.754 510.469H482.891C486.838 510.485 490.63 508.931 493.432 506.151C496.234 503.371 497.817 499.592 497.832 495.645C497.848 491.698 496.295 487.906 493.515 485.104C490.735 482.302 486.955 480.719 483.008 480.703H482.891Z" fill="#B53A25"/>
<path d="M785.82 481.23H511.738V506.855H785.82V481.23Z" fill="#B53A25"/>
<path d="M514.922 686.172C509.543 686.172 504.176 685.681 498.887 684.707L503.516 659.512C533.711 665.078 566.523 647.95 587.07 615.86C595.508 602.715 601.992 587.5 608.887 571.426C614.219 558.926 619.727 546.035 626.309 533.985C646.758 496.504 675 477.949 701.816 484.336L695.957 509.258C678.379 505.078 659.609 526.563 648.867 546.25C642.891 557.227 637.852 569.004 632.52 581.407C625.527 597.754 618.301 614.61 608.731 629.61C585.938 665.196 550.391 686.172 514.922 686.172Z" fill="#B53A25"/>
<path d="M792.305 537.852H791.934C783.641 537.783 775.556 535.257 768.7 530.591C761.844 525.926 756.526 519.332 753.419 511.644C750.312 503.955 749.555 495.518 751.244 487.399C752.934 479.281 756.994 471.846 762.91 466.035C766.813 462.15 771.454 459.085 776.559 457.019C781.664 454.953 787.13 453.928 792.637 454.004C803.753 454.107 814.374 458.618 822.167 466.547C829.96 474.475 834.288 485.172 834.199 496.289L819.98 496.152L834.199 496.289C834.106 507.341 829.652 517.909 821.806 525.693C813.96 533.477 803.357 537.847 792.305 537.852ZM792.305 482.461C788.821 482.578 785.517 484.04 783.089 486.54C780.66 489.041 779.294 492.385 779.279 495.871C779.264 499.357 780.6 502.714 783.007 505.235C785.414 507.757 788.705 509.248 792.187 509.395C793.96 509.418 795.719 509.084 797.36 508.413C799.001 507.742 800.49 506.747 801.738 505.488C803.642 503.622 804.948 501.233 805.492 498.623C806.036 496.013 805.792 493.301 804.792 490.83C803.792 488.359 802.08 486.241 799.874 484.744C797.669 483.247 795.068 482.439 792.402 482.422L792.305 482.461Z" fill="#B53A25"/>
<path d="M808.268 64.8346L782.643 64.8838L783.407 463.301L809.033 463.252L808.268 64.8346Z" fill="#B53A25"/>
<path d="M910.45 168.34C902.453 168.34 894.635 165.972 887.982 161.537C881.328 157.101 876.136 150.795 873.06 143.414C869.984 136.032 869.162 127.906 870.696 120.058C872.231 112.21 876.054 104.992 881.684 99.3127C887.314 93.6339 894.499 89.7484 902.334 88.1459C910.168 86.5434 918.302 87.2956 925.709 90.3077C933.117 93.3198 939.467 98.4571 943.96 105.072C948.454 111.687 950.888 119.484 950.958 127.48C951.036 138.217 946.852 148.547 939.324 156.203C931.796 163.86 921.538 168.217 910.801 168.32L910.45 168.34ZM910.45 112.949H910.313C906.366 112.967 902.587 114.553 899.809 117.357C897.031 120.161 895.48 123.953 895.498 127.9C895.517 131.848 897.102 135.626 899.906 138.404C902.71 141.182 906.503 142.733 910.45 142.715H910.567C914.512 142.679 918.283 141.079 921.051 138.267C923.819 135.455 925.359 131.661 925.332 127.715C925.291 123.795 923.709 120.048 920.928 117.285C918.147 114.522 914.39 112.964 910.469 112.949H910.45Z" fill="#B53A25"/>
<path d="M808.887 303.203L783.301 301.895C783.594 296.035 791.523 159.082 874.746 130.938L882.949 155.195C864.219 161.543 838.32 180.586 821.387 235.703C814.788 257.684 810.597 280.317 808.887 303.203Z" fill="#B53A25"/>
<path d="M806.129 511.884L780.504 511.938L781.404 941.702L807.029 941.648L806.129 511.884Z" fill="#B53A25"/>
<path d="M908.398 894.922H908.046C900.034 894.856 892.222 892.415 885.597 887.908C878.972 883.402 873.832 877.032 870.828 869.604C867.823 862.176 867.089 854.024 868.718 846.179C870.347 838.334 874.266 831.149 879.979 825.531C885.693 819.913 892.943 816.116 900.815 814.62C908.686 813.124 916.825 813.995 924.201 817.125C931.577 820.254 937.859 825.5 942.253 832.2C946.647 838.9 948.955 846.753 948.886 854.765C948.783 865.441 944.474 875.645 936.894 883.163C929.314 890.682 919.074 894.907 908.398 894.922ZM908.398 839.531C904.451 839.513 900.658 841.063 897.854 843.842C895.05 846.62 893.465 850.398 893.447 854.345C893.429 858.292 894.979 862.085 897.757 864.889C900.536 867.693 904.314 869.278 908.261 869.296H908.398C912.345 869.312 916.137 867.759 918.939 864.979C921.741 862.199 923.324 858.419 923.339 854.472C923.355 850.525 921.802 846.733 919.022 843.931C916.242 841.129 912.462 839.546 908.515 839.531H908.398Z" fill="#B53A25"/>
<path d="M794.453 1000H794.102C783.27 999.953 772.899 995.612 765.265 987.928C757.63 980.244 753.356 969.845 753.379 959.014C753.402 948.182 757.721 937.802 765.389 930.151C773.056 922.5 783.446 918.203 794.277 918.203C805.109 918.203 815.498 922.5 823.166 930.151C830.833 937.802 835.152 948.182 835.176 959.014C835.199 969.845 830.924 980.244 823.29 987.928C815.656 995.612 805.285 999.953 794.453 1000ZM794.453 944.609C792.499 944.601 790.562 944.979 788.753 945.719C786.945 946.46 785.3 947.55 783.912 948.927C782.525 950.303 781.422 951.94 780.667 953.742C779.912 955.545 779.519 957.479 779.512 959.433C779.504 961.388 779.881 963.325 780.622 965.133C781.363 966.942 782.453 968.587 783.829 969.974C785.206 971.362 786.842 972.464 788.645 973.219C790.448 973.974 792.382 974.367 794.336 974.375C796.295 974.424 798.242 974.071 800.06 973.339C801.877 972.606 803.525 971.51 804.902 970.117C806.997 968.05 808.432 965.409 809.028 962.528C809.623 959.646 809.353 956.653 808.25 953.925C807.147 951.197 805.261 948.857 802.83 947.199C800.399 945.541 797.532 944.64 794.59 944.609H794.453Z" fill="#B53A25"/>
<path d="M794.453 81.016H794.102C783.359 80.9719 773.073 76.6619 765.507 69.0341C757.942 61.4063 753.716 51.0855 753.76 40.3421C753.804 29.5988 758.114 19.313 765.742 11.7474C773.37 4.18186 783.691 -0.0436894 794.434 0.000340673H794.785C805.522 0.103499 815.78 4.46115 823.308 12.1174C830.836 19.7736 835.02 30.1032 834.942 40.8402L822.129 40.7425L834.942 40.8402C834.844 51.5193 830.537 61.7287 822.956 69.251C815.375 76.7732 805.133 81.001 794.453 81.016ZM794.453 25.6253C790.506 25.6098 786.715 27.1629 783.913 29.943C781.111 32.7231 779.528 36.5024 779.512 40.4496C779.497 44.3967 781.05 48.1884 783.83 50.9905C786.61 53.7925 790.389 55.3754 794.336 55.391H794.473C798.42 55.4065 802.212 53.8534 805.014 51.0733C807.816 48.2932 809.399 44.5139 809.414 40.5667C809.43 36.6196 807.877 32.8279 805.097 30.0258C802.317 27.2238 798.537 25.6409 794.59 25.6253H794.453Z" fill="#B53A25"/>
<path d="M873.691 854.941C790.605 826.836 780.84 692.832 780.469 687.187L806.016 685.488C808.054 707.901 812.533 730.025 819.375 751.465C836.953 805.41 863.105 824.316 881.875 830.664L873.691 854.941Z" fill="#B53A25"/>
<path d="M777.774 376.622L787.91 382.266C791.934 395.938 795.899 410.372 798.809 421.797C802.408 421.076 806.047 420.574 809.707 420.293L804.16 413.458C802.793 406.563 800.86 401.465 796.348 382.95C795.72 380.247 795.393 377.483 795.371 374.708C795.098 356.797 794.785 338.868 794.785 320.958C794.785 298.086 795.391 275.215 795.078 252.364C795.092 239.604 791.504 227.1 784.727 216.29C780.293 209.336 775.274 202.325 765.645 203.594C756.016 204.864 752.871 212.833 750.02 220.626C748.809 223.868 747.325 227.032 745.977 230.235L743.125 230.079C741.524 222.989 735 178.633 731.895 163.868C726.563 138.36 719.61 113.282 694.121 98.9849C694.121 98.9849 676.543 91.895 670.879 104.395C669.024 108.497 665.664 112.579 665.274 116.876C664.512 125.118 665.274 133.477 665.489 141.797C665.489 143.751 665.664 145.704 665.762 147.501L663.926 147.969C660.547 140.45 657.032 132.989 653.809 125.391C648.701 112.995 640.594 102.062 630.215 93.5747C623.025 87.6135 614.699 83.1748 605.743 80.5278C587.696 75.6646 572.891 89.6294 575.313 107.872C575.547 109.61 575.899 111.329 576.68 115.938C573.878 114.023 570.926 112.338 567.852 110.899C560.506 108.111 552.975 105.84 545.313 104.102C528.243 100.879 514.707 114.493 519.121 130.723C520.87 136.643 524.096 142.02 528.496 146.348C534.864 152.618 542.618 157.559 549.766 163.067C551.524 164.434 553.243 165.84 555.508 167.637C549.649 169.727 544.668 170.899 540.293 173.243C527.989 179.805 526.524 194.004 537.5 202.227C542.047 205.526 547.238 207.829 552.735 208.985C563.789 211.387 575.078 212.891 586.328 214.278C600.723 216.114 615.235 217.208 629.59 219.297C635.196 220.118 641.446 221.133 644.922 227.286C639.063 231.778 632.578 229.688 626.485 230.196C616.719 230.977 606.953 231.426 597.442 233.516C589.141 235.333 582.207 240.333 580.86 249.512C579.746 257.051 585.41 264.571 594.532 268.672C595.661 269.232 596.846 269.67 598.067 269.981C612.754 273.321 627.364 277.168 642.207 279.747C657.051 282.325 671.621 283.653 686.309 285.704C692.735 286.661 699.121 288.282 703.555 294.473C700.239 295.602 696.743 296.111 693.243 295.977C685.684 295.723 678.067 294.376 670.586 295.001C658.36 296.036 653.008 307.266 660.567 316.485C664.355 320.975 669.21 324.44 674.688 326.563C685.277 330.582 696.137 333.845 707.188 336.329C734.981 342.833 758.77 355.645 777.774 376.622Z" fill="#B8CDB4"/>
<path d="M772.285 355.469C770.156 353.086 769.492 349.707 768.164 346.797C768.079 346.552 767.946 346.326 767.773 346.133C764.592 344.306 761.514 342.304 758.554 340.137C754.146 336.728 749.297 333.929 744.14 331.816C731.547 327.293 718.676 323.587 705.605 320.723C705.406 320.672 705.203 320.633 705 320.605C704.268 320.571 703.552 320.379 702.901 320.042C702.25 319.705 701.68 319.231 701.23 318.652C700.838 317.953 700.604 317.176 700.543 316.377C700.482 315.577 700.597 314.774 700.879 314.023C701.013 313.515 701.337 313.078 701.784 312.802C702.231 312.526 702.767 312.432 703.281 312.539L709.297 313.691C724.375 316.562 739.824 319.551 753.867 327.363C755.82 328.301 757.968 329.316 760.175 330.449C752.988 317.5 745.84 305.547 738.457 294.062C735.184 289.172 730.835 285.096 725.742 282.148C714.182 274.708 701.125 269.907 687.5 268.086C669.375 265.859 651.23 263.535 633.672 261.309C632.968 261.309 632.265 261.152 631.543 261.094C628.564 261.122 625.64 260.288 623.125 258.691C622.907 258.629 622.703 258.53 622.519 258.398C622.165 258.146 621.905 257.781 621.781 257.364C621.657 256.946 621.676 256.499 621.836 256.094C622.032 255.576 622.415 255.151 622.91 254.902L621.425 254.59H623.379C625.488 253.561 627.882 253.272 630.175 253.77H630.644C634.218 254.199 637.793 254.57 641.367 254.941C646.875 255.527 652.558 256.113 658.144 256.895C662.05 257.461 666.25 257.93 670.215 258.398C687.343 260.352 704.961 262.48 721.523 271.27L715 263.789C700.644 247.305 685.8 230.234 669.687 214.805C663.53 208.923 656.212 204.393 648.203 201.504C630.625 194.844 610.8 191.934 585.918 192.344H584.316C576.133 192.48 567.675 192.637 557.519 189.727C557.093 189.612 556.718 189.357 556.456 189.002C556.193 188.647 556.059 188.214 556.074 187.773C556.085 187.316 556.248 186.875 556.538 186.521C556.829 186.167 557.229 185.92 557.675 185.82C562.491 184.822 567.433 184.578 572.324 185.098C574.688 185.311 577.064 185.35 579.433 185.215C589.057 184.545 598.716 184.545 608.34 185.215C621.425 185.957 633.984 189.238 646.152 192.52L645.898 192.324L645.41 191.914C622.642 173.056 598.198 156.32 572.382 141.914C570.918 141.113 569.375 140.391 567.754 139.648C563.34 137.695 558.769 135.527 555.586 131.25C555.375 131.147 555.189 131.001 555.039 130.82C554.808 130.558 554.651 130.238 554.586 129.894C554.521 129.551 554.549 129.196 554.668 128.867V128.633C554.794 128.272 555.018 127.953 555.314 127.712C555.611 127.471 555.968 127.316 556.347 127.266C556.732 127.204 557.127 127.258 557.48 127.422C559.491 127.555 561.428 128.23 563.086 129.375L563.925 129.844C585.766 141.125 606.822 153.862 626.953 167.969C637.148 175.293 646.933 183.301 657.832 192.656C657.246 191.406 656.679 190.156 656.113 188.906C652.304 180.547 648.691 172.637 645 164.902C641.565 158.12 637.649 151.593 633.281 145.371C630.664 141.465 627.949 137.344 625.468 133.145C621.211 126.21 616.487 119.574 611.328 113.281C609.375 110.801 607.422 108.242 605.312 105.469C605.045 105.126 604.899 104.703 604.899 104.268C604.899 103.832 605.045 103.41 605.312 103.066C605.618 102.667 606.066 102.402 606.562 102.324C606.308 102.07 606.074 101.797 605.8 101.543C606.191 101.797 606.543 102.051 606.933 102.285C607.193 102.283 607.452 102.329 607.695 102.422C612.83 104.09 617.294 107.363 620.429 111.758C622.812 114.785 625.136 117.852 627.343 120.977C627.715 121.465 628.047 121.953 628.398 122.461C634.405 130.985 639.797 139.927 644.531 149.219C645.097 150.371 645.644 151.523 646.191 152.676C648.535 156.934 650.82 161.23 652.988 165.566C653.281 166.016 653.554 166.465 653.867 166.895C655.391 169.188 656.656 171.645 657.636 174.219C659.179 177.852 660.625 181.289 663.711 183.652C664.097 183.944 664.362 184.368 664.453 184.844C664.847 186.979 665.401 189.081 666.113 191.133C669.785 197.812 673.691 204.355 677.988 210.664C680.312 213.438 682.773 216.152 685.293 218.926C686.953 220.742 688.593 222.578 690.215 224.414C696.074 230.977 702.129 237.402 708.105 243.613L713.964 249.766C714.476 250.351 714.897 251.009 715.215 251.719C715.385 252.048 715.574 252.368 715.781 252.676C715.571 251.084 715.13 249.531 714.472 248.066C713.867 246.657 713.403 245.192 713.086 243.691C710.979 230.651 709.752 217.483 709.414 204.277L709.179 199.355C707.851 172.422 702.285 149.57 692.168 129.512C692.062 129.303 691.945 129.101 691.816 128.906C691.202 128.134 690.84 127.19 690.781 126.205C690.721 125.219 690.967 124.239 691.484 123.398C691.693 123.079 691.985 122.822 692.33 122.657C692.674 122.492 693.057 122.424 693.437 122.461C697.48 122.754 698.964 125.84 699.922 127.871C707.89 144.551 715.136 161.074 716.289 179.805L717.05 192.383C717.89 206.504 718.75 221.113 720.078 235.352C721.562 251.406 726.445 264.453 735 275.273C741.185 282.878 746.571 291.098 751.074 299.805C751.577 300.744 752.237 301.59 753.027 302.305C753.632 302.871 753.965 302.871 754.179 302.812C754.394 302.754 754.179 302.363 754.179 302.168C754.199 294.246 755.283 286.363 757.402 278.73C760.636 266.196 762.895 253.43 764.16 240.547C764.16 240.137 764.16 239.727 764.16 239.316C764.08 237.887 764.293 236.457 764.787 235.113C765.281 233.77 766.045 232.541 767.031 231.504C767.416 231.138 767.926 230.935 768.457 230.935C768.987 230.935 769.498 231.138 769.882 231.504C770.98 232.601 771.773 233.965 772.184 235.461C772.595 236.958 772.609 238.535 772.226 240.039C772.122 240.77 772.064 241.507 772.05 242.246C771.849 253.599 770.242 264.883 767.265 275.84C760.742 297.324 762.089 316.855 771.347 335.371C772.011 336.738 772.754 338.184 773.496 339.668C773.535 339.609 789.511 374.766 772.285 355.469Z" fill="#2D3837"/>
<path d="M801.855 393.692C802.59 394.428 803.402 395.083 804.277 395.645C815.995 401.114 820.937 412.598 815.995 424.688C812.206 434.043 808.476 443.418 805.449 453.047C803.242 460.098 798.847 466.426 798.398 474.063L797.421 475.313C798.867 475.743 798.046 474.454 798.378 474.043C799.199 473.926 800.195 473.907 800.507 473.028C803.242 465.215 808.632 458.77 812.734 451.641C817.245 443.829 822.226 436.172 826.913 428.399C828.426 425.803 830.463 423.551 832.895 421.785C835.326 420.02 838.098 418.78 841.035 418.145C846.102 416.898 851.445 417.466 856.137 419.75C860.829 422.033 864.573 425.888 866.718 430.645C871.113 441.231 867.538 454.082 857.812 458.77C842.382 466.133 827.324 474.395 810.937 479.668C808.671 480.411 807.812 481.797 807.382 484.746C822.714 480.157 837.695 477.481 852.304 473.594C860.292 471.504 868.3 469.59 876.327 473.36C886.816 478.301 891.425 492.051 886.386 503.184C881.913 513.067 867.382 518.633 857.089 514.18C842.89 507.969 828.085 503.399 813.652 497.852C812.519 497.422 811.406 496.661 810.273 497.852C810.097 499.532 811.601 499.805 812.558 500.371C825.507 508.438 838.398 516.582 851.464 524.434C865.898 533.086 867.46 552.188 853.828 561.914C842.851 569.727 827.578 566.817 821.562 554.512C817.304 545.801 813.222 536.934 809.199 528.164C806.152 521.446 803.886 514.121 799.081 508.106C797.363 509.825 798.163 511.387 798.535 512.969C802.011 527.832 805.585 542.676 808.847 557.598C811.015 567.539 808.398 575.879 799.765 582.032C792.714 587.051 782.792 587.032 774.179 581.582C768.007 577.676 764.55 568.789 765.663 561.094C767.07 551.328 771.816 542.735 774.824 533.516C777.441 525.45 780.331 517.442 783.203 509.102C782.529 509.029 781.849 509.157 781.247 509.47C780.646 509.783 780.151 510.266 779.824 510.86C773.144 521.993 766.699 533.282 759.804 544.297C755.117 551.739 750.702 559.551 740.449 560.977C735.634 561.836 730.672 561.092 726.321 558.859C721.971 556.626 718.473 553.027 716.364 548.615C714.256 544.203 713.653 539.221 714.648 534.433C715.644 529.645 718.182 525.316 721.874 522.11C725.976 518.555 731.152 516.934 735.976 514.766C749.374 508.711 762.792 502.715 775.781 495.606C774.433 493.848 773.261 494.532 772.089 494.825C755.292 499.102 738.495 503.301 721.601 507.09C717.989 507.988 714.21 507.962 710.611 507.013C707.013 506.065 703.711 504.225 701.011 501.664C698.312 499.102 696.301 495.902 695.165 492.358C694.029 488.814 693.804 485.041 694.511 481.387C696.933 468.34 710.878 459.903 722.421 464.297C737.206 469.883 752.187 475.02 767.167 480.137C769.511 480.938 771.171 484.043 774.98 482.09C761.953 473.125 748.73 465.196 735.351 457.657C724.765 451.7 718.046 442.383 719.023 432.149C719.785 424.336 728.359 414.571 735.683 413.106C746.132 411.153 757.167 415.664 761.074 424.161C768.183 439.082 774.98 454.141 781.952 469.082C782.734 470.723 782.91 472.989 785.859 474.024C781.952 457.52 778.281 441.739 774.785 425.879C770.156 404.864 775.136 401.68 787.577 393.77C792.48 393.164 797.167 392.442 801.855 393.692ZM777.695 487.539C777.492 489.34 777.663 491.163 778.199 492.894C778.735 494.625 779.624 496.226 780.809 497.596C781.995 498.967 783.451 500.077 785.086 500.857C786.722 501.638 788.501 502.071 790.312 502.129C793.739 501.99 796.999 500.606 799.479 498.237C801.96 495.868 803.492 492.676 803.788 489.258C803.787 485.829 802.466 482.533 800.098 480.052C797.73 477.572 794.499 476.099 791.074 475.938C789.427 475.791 787.768 475.978 786.196 476.486C784.623 476.995 783.169 477.815 781.921 478.898C780.672 479.981 779.654 481.304 778.928 482.789C778.202 484.273 777.783 485.889 777.695 487.539Z" fill="#F74700"/>
<path d="M791.953 473.106C789.671 472.9 787.372 473.158 785.192 473.863C783.012 474.568 780.997 475.706 779.268 477.209C777.539 478.712 776.131 480.549 775.129 482.609C774.127 484.67 773.552 486.911 773.437 489.199C772.695 500.293 780.332 509.102 790.918 509.395C800.059 509.649 809.082 501.016 809.57 491.563C810.059 482.11 801.816 473.574 791.953 473.106Z" fill="#B8CDB4"/>
<path d="M271.856 644.531C271.66 645.742 273.028 635.645 273.809 631.543C270.899 622.793 271.758 613.867 272.5 604.942C273.008 598.965 270.313 598.223 265.684 601.035C265.618 601.099 265.569 601.178 265.541 601.265C265.513 601.352 265.506 601.445 265.521 601.535C265.537 601.625 265.574 601.711 265.629 601.783C265.685 601.856 265.757 601.915 265.84 601.953C265.128 605.045 265.068 608.251 265.664 611.367C265.325 611.873 265.136 612.464 265.119 613.072C265.101 613.68 265.257 614.281 265.567 614.805C264.18 625.098 262.735 635.41 261.348 645.703C258.906 654.024 255.879 662.149 252.715 670.215L253.028 670.352C250.752 675.913 248.796 681.599 247.168 687.383L241.524 689.922L242.129 688.77C241.543 687.949 239.375 688.945 238.496 688.457C232.11 692.5 223.77 689.531 216.699 689.297C214.14 689.082 211.563 689.383 209.123 690.183C206.682 690.983 204.427 692.266 202.492 693.955C200.557 695.644 198.982 697.705 197.859 700.015C196.736 702.325 196.09 704.837 195.957 707.402C195.762 709.61 196.914 712.481 194.492 713.731C191.738 715.117 189.785 712.442 187.852 710.996C175.195 699.063 146.192 686.152 140 710.352C136.817 721.621 148.242 728.75 154.199 736.524C162.481 758.789 122.031 721.797 117.246 720.117C95.6447 701.563 55.2345 711.133 67.9689 745.039C70.3322 760.41 99.5314 774.043 94.3361 785.84C86.5236 792.461 59.4533 775.703 46.1525 780.391C32.6369 782.832 27.0119 794.16 33.3595 806.25C51.3673 829.082 40.6642 827.539 24.6486 845C16.0353 853.399 22.9689 869.102 34.6877 869.785C50.4689 873.691 73.2619 854.16 84.4923 870.156C91.4064 881.66 103.75 895.332 116.387 888.926C127.285 884.883 132.012 877.207 131.445 864.219C131.875 862.5 130.899 859.414 132.656 858.965C144.785 855.781 149.336 870.254 157.656 879.785C166.113 889.688 183.75 886.953 191.758 876.797C198.809 868.301 200.488 856.289 199.57 845.293C194.824 827.715 191.973 798.711 216.465 804.902L224.785 808.34C235.274 817.598 254.082 815.449 256.035 796.348L256.524 796.231C255.606 781.231 247.481 765.137 234.278 756.758C231.426 755.449 228.653 753.711 229.004 750.234C231.504 740.938 237.051 742.422 239.785 739.629C256.426 722.988 250.137 709.844 252.969 692.188H252.774C252.774 692.188 263.047 667.207 267.051 653.906L271.856 644.531ZM131.055 864.024L130.449 863.789L131.055 864.024Z" fill="#B8CDB4"/>
<path d="M235.234 711.739C234.419 712.363 233.8 713.209 233.454 714.175C233.107 715.142 233.048 716.188 233.281 717.188C225.558 724.04 218.867 731.974 213.418 740.743C209.648 742.696 207.363 746.309 204.062 749.004C203.183 749.836 202.641 750.962 202.539 752.168C201.27 763.204 206.445 775.254 215.234 781.133C222.461 784.786 224.824 786.856 224.063 787.676C223.379 789.239 220.938 788.536 219.59 788.028C206.836 786.075 197.461 770.293 197.07 755.958C164.238 783.575 157.734 812.129 179.082 848.672C179.629 852.735 176.367 853.809 173.477 848.926C159.219 827.286 156.582 801.68 168.652 781.348C153.027 790.626 140.625 802.462 128.906 817.208C115.41 834.473 120.625 846.505 116.68 864.083L117.695 866.036L114.023 864.805L114.453 864.122C108.125 848.809 114.453 830.606 122.383 815.489C107.578 824.629 91.5039 832.266 76.0547 839.747C69.7266 841.27 53.4766 854.708 49.0039 848.868C75.3125 832.911 107.207 819.903 128.184 804.649C109.062 810.333 89.1211 805.899 70.6055 802.266C65.5469 801.446 60.1172 802.169 55.5273 798.868C65.0781 791.719 79.1797 798.282 89.8633 799.219C129.043 807.93 148.809 790.215 176.191 766.192C140.625 786.446 110.273 751.954 84.4922 732.168C83.1445 731.543 81.3086 730.118 82.8516 727.715C95.8594 730.313 105.41 742.676 115.703 750.411C139.688 771.895 173.008 769.59 194.805 750.411C195.293 746.504 199.707 748.008 200.547 745.508C200.938 744.2 203.105 741.465 200.137 742.188C179.16 744.629 166.191 729.356 155.703 710.215C155.594 709.953 155.572 709.663 155.64 709.387C155.708 709.112 155.863 708.865 156.081 708.684C156.3 708.503 156.571 708.396 156.854 708.38C157.137 708.364 157.419 708.439 157.656 708.594C164.961 714.922 170.156 723.008 177.832 729.122C201.27 748.008 221.152 720.001 229.316 709.59C228.516 710.821 235.234 711.739 235.234 711.739Z" fill="#2D3837"/>
<path d="M286.309 235.879H260.684V437.969H286.309V235.879Z" fill="#B53A25"/>
<path d="M387.754 171.445C377.164 171.26 367.067 166.934 359.628 159.395C352.188 151.855 347.998 141.702 347.954 131.11C347.911 120.518 352.018 110.33 359.395 102.73C366.773 95.1295 376.834 90.7211 387.422 90.4492H387.774C398.364 90.6343 408.461 94.9601 415.9 102.5C423.34 110.039 427.53 120.193 427.573 130.785C427.617 141.377 423.51 151.564 416.132 159.165C408.755 166.765 398.694 171.173 388.106 171.445H387.754ZM387.754 116.055H387.617C383.761 116.211 380.115 117.857 377.448 120.648C374.781 123.438 373.301 127.154 373.319 131.013C373.336 134.873 374.851 138.575 377.543 141.341C380.236 144.106 383.896 145.719 387.754 145.84H387.871C391.728 145.686 395.374 144.042 398.043 141.253C400.711 138.465 402.194 134.75 402.179 130.891C402.164 127.031 400.652 123.328 397.961 120.561C395.271 117.794 391.612 116.178 387.754 116.055Z" fill="#B53A25"/>
<path d="M286.191 306.328L260.605 305C260.898 299.141 268.828 162.188 352.051 134.043L360.254 158.32C341.504 164.648 315.625 183.711 298.691 238.828C292.091 260.809 287.9 283.442 286.191 306.328Z" fill="#B53A25"/>
<path d="M166.016 171.445H165.664C154.801 171.398 144.401 167.045 136.744 159.339C129.088 151.633 124.801 141.205 124.824 130.342C124.848 119.479 129.179 109.069 136.869 101.396C144.558 93.7233 154.977 89.4141 165.84 89.4141C176.703 89.4141 187.122 93.7233 194.811 101.396C202.501 109.069 206.832 119.479 206.855 130.342C206.879 141.205 202.592 151.633 194.935 159.339C187.279 167.045 176.878 171.398 166.016 171.445ZM166.016 116.054C162.158 116.178 158.499 117.793 155.809 120.561C153.118 123.328 151.606 127.031 151.591 130.89C151.576 134.75 153.059 138.465 155.727 141.253C158.396 144.041 162.042 145.685 165.898 145.839H166.016C169.872 145.7 173.524 144.07 176.203 141.292C178.882 138.514 180.379 134.806 180.379 130.947C180.379 127.088 178.882 123.379 176.203 120.602C173.524 117.824 169.872 116.194 166.016 116.054Z" fill="#B53A25"/>
<path d="M260.703 311.738C259.474 288.429 255.735 265.32 249.551 242.812C233.711 186.758 208.145 167.48 189.492 161.172L197.695 136.895C281.094 165.117 286.133 305.039 286.309 310.977L260.703 311.738Z" fill="#B53A25"/>
<path d="M283.386 548.902L257.762 549.019L258.511 714.095L284.136 713.979L283.386 548.902Z" fill="#B53A25"/>
<path d="M385.702 898.027H385.351C380.031 898.005 374.768 896.936 369.862 894.88C364.956 892.824 360.502 889.822 356.756 886.045C349.191 878.417 344.965 868.096 345.009 857.353C345.053 846.61 349.363 836.324 356.991 828.758C364.619 821.193 374.94 816.967 385.683 817.011H386.035C396.623 817.283 406.684 821.691 414.061 829.292C421.439 836.892 425.546 847.08 425.502 857.672C425.459 868.264 421.268 878.417 413.829 885.957C406.39 893.496 396.293 897.822 385.702 898.007V898.027ZM385.702 842.636C381.777 842.641 378.012 844.195 375.226 846.959C372.439 849.724 370.856 853.476 370.82 857.402C370.788 861.346 372.324 865.141 375.089 867.953C377.854 870.766 381.622 872.366 385.566 872.402H385.702C389.628 872.407 393.396 870.859 396.184 868.097C398.972 865.334 400.554 861.581 400.585 857.656L413.378 857.753L400.585 857.656C400.611 853.708 399.072 849.911 396.305 847.096C393.537 844.281 389.767 842.677 385.82 842.636H385.702Z" fill="#B53A25"/>
<path d="M350.996 858.047C267.91 829.961 258.145 695.937 257.773 690.293L283.32 688.613C285.36 711.026 289.84 733.149 296.68 754.59C314.258 808.535 340.41 827.441 359.18 833.789L350.996 858.047Z" fill="#B53A25"/>
<path d="M282.852 393.691C283.594 394.428 284.412 395.082 285.293 395.645C297.012 401.113 301.934 412.598 297.012 424.688C293.223 434.043 289.493 443.418 286.465 453.047C284.239 460.098 279.844 466.426 279.395 474.062L278.418 475.312C279.864 475.742 279.043 474.453 279.395 474.043C280.215 473.926 281.211 473.906 281.504 473.027C284.239 465.215 289.649 458.77 293.731 451.641C298.243 443.828 303.223 436.172 307.91 428.398C309.412 425.768 311.448 423.481 313.887 421.685C316.325 419.888 319.113 418.623 322.071 417.969C327.14 416.725 332.485 417.294 337.18 419.577C341.874 421.86 345.622 425.713 347.774 430.469C352.149 441.055 348.575 453.906 338.868 458.594C323.418 465.957 308.36 474.219 291.993 479.492C289.727 480.234 288.848 481.621 288.418 484.57C303.75 479.98 318.731 477.305 333.34 473.418C341.328 471.328 349.336 469.414 357.364 473.184C367.852 478.125 372.461 491.875 367.422 503.008C362.95 512.891 348.418 518.457 338.125 514.004C324.219 507.813 309.356 503.301 294.922 497.754C293.789 497.324 292.696 496.562 291.543 497.754C291.368 499.434 292.891 499.707 293.828 500.273C306.778 508.34 319.668 516.484 332.735 524.336C347.188 532.988 348.731 552.09 335.098 561.816C324.121 569.629 308.868 566.719 302.832 554.414C298.575 545.703 294.493 536.836 290.489 528.066C287.442 521.348 285.157 514.023 280.352 508.008C278.653 509.727 279.434 511.289 279.805 512.871C283.282 527.734 286.856 542.578 290.118 557.5C292.305 567.441 289.688 575.781 281.035 581.934C273.985 586.953 264.063 586.934 255.45 581.484C249.278 577.578 245.821 568.691 246.934 560.996C248.34 551.23 253.106 542.637 256.094 533.418C258.731 525.352 261.602 517.344 264.473 509.004C263.802 508.935 263.126 509.065 262.529 509.378C261.932 509.69 261.44 510.172 261.114 510.762C254.414 521.895 247.989 533.184 241.075 544.199C236.407 551.641 231.973 559.453 221.719 560.879C216.917 561.722 211.97 560.971 207.634 558.741C203.298 556.511 199.811 552.923 197.704 548.526C195.597 544.129 194.987 539.163 195.966 534.387C196.944 529.61 199.459 525.285 203.125 522.07C207.227 518.516 212.403 516.895 217.227 514.727C230.625 508.672 244.043 502.676 257.032 495.566C255.684 493.809 254.532 494.492 253.34 494.785C236.563 499.062 219.766 503.262 202.852 507.051C199.242 507.945 195.464 507.915 191.869 506.965C188.273 506.015 184.974 504.174 182.277 501.614C179.58 499.053 177.571 495.854 176.436 492.312C175.301 488.77 175.076 484.999 175.782 481.348C178.203 468.301 192.149 459.863 203.692 464.258C218.496 469.844 233.477 474.98 248.438 480.098C250.782 480.898 252.442 484.004 256.25 482.051C243.243 473.086 230.02 465.156 216.621 457.617C206.036 451.66 199.336 442.344 200.313 432.109C201.055 424.297 209.629 414.531 216.953 413.066C227.422 411.113 238.438 415.625 242.344 424.121C249.453 439.043 256.25 454.102 263.243 469.043C264.004 470.684 264.2 472.949 267.051 473.984C263.243 457.48 259.473 441.699 255.996 425.84C251.348 404.824 256.328 401.641 268.77 393.73C273.438 393.164 278.164 392.441 282.852 393.691ZM258.711 487.539C258.505 489.34 258.675 491.164 259.21 492.897C259.745 494.629 260.633 496.231 261.819 497.602C263.005 498.973 264.462 500.084 266.099 500.863C267.736 501.642 269.516 502.073 271.328 502.129C277.91 502.305 284.434 496.074 284.785 489.258C284.789 485.827 283.469 482.528 281.101 480.047C278.732 477.565 275.497 476.093 272.071 475.937C270.425 475.788 268.766 475.973 267.193 476.48C265.621 476.988 264.167 477.808 262.919 478.892C261.671 479.975 260.655 481.3 259.932 482.786C259.209 484.272 258.794 485.889 258.711 487.539Z" fill="#F74700"/>
<path d="M272.95 473.105C270.668 472.902 268.37 473.162 266.191 473.868C264.013 474.574 261.999 475.713 260.27 477.215C258.542 478.718 257.134 480.553 256.131 482.612C255.128 484.671 254.551 486.911 254.434 489.199C253.711 500.292 261.329 509.101 271.915 509.394C281.055 509.648 290.098 501.015 290.586 491.562C291.075 482.109 282.833 473.574 272.95 473.105Z" fill="#B8CDB4"/>
</g>
<defs>
<clipPath id="clip0">
<rect width="1000" height="1000" fill="white"/>
</clipPath>
</defs>
</svg>
