<svg width="1000" height="1000" viewBox="0 0 1000 1000" fill="none" xmlns="http://www.w3.org/2000/svg">
<g clip-path="url(#clip0)">
<path d="M416.855 182.695L417.109 193.281C386.777 197.676 353.438 206.523 341.328 237.012C331.66 260.215 330.43 296.855 331.211 324.609C332.07 345.527 334.824 382.266 335.625 402.148L381.738 401.445C380.293 349.512 373.926 291.191 394.297 263.418C406.563 246.738 429.707 237.188 466.074 231.191C465.957 189.609 466.367 142.402 466.582 100.801C466.582 96.6797 465.879 95.957 463.906 94.4531L417.031 59.9219C415.762 94.1992 415.723 137.285 416.855 182.695Z" fill="#B53A25"/>
<path d="M256.758 857.715C248.457 869.219 227.852 881.934 216.68 890.195C204.955 898.746 192.028 905.512 178.32 910.273C165.303 914.756 151.86 917.891 138.203 919.629C125.402 921.253 112.513 922.074 99.6094 922.09C93.5156 922.09 84.7266 922.09 77.4023 921.836C88.7305 939.414 132.949 957.598 132.949 957.598C135.515 958.868 138.348 959.505 141.211 959.453C159.805 959.453 172.461 960.527 203.047 954.492C239.082 947.402 280.391 928.027 301.953 897.227L302.852 895.957C284.492 885.313 271.23 872.227 256.758 857.715Z" fill="#B53A25"/>
<path d="M334.883 698.984L330.41 589.219C427.383 588.594 571.621 588.066 685.684 588.535C685.684 600.703 685.781 608.359 685.918 620.371C685.918 620.371 564.355 620.371 577.754 620.742C591.152 621.113 448.105 620.332 382.773 620.644C378.555 621.504 379.473 625.508 379.551 627.871L382.148 747.226C382.228 762.188 385.512 776.96 391.777 790.547C384.199 787.324 377.012 787.48 370.293 781.621C370.332 781.621 337.617 756.015 334.883 698.984Z" fill="#B53A25"/>
<path d="M466.172 838.652C464.355 837.344 435.313 816.387 422.129 801.543C423.086 845.098 425.098 881.27 426.484 924.59C398.105 925.273 329.98 907.539 304.785 902.891C352.969 948.047 411.992 969.394 474.941 967.617C473.75 930.059 472.266 892.519 471.582 854.941C471.445 847.832 471.055 841.797 466.172 838.652Z" fill="#B53A25"/>
<path d="M999.784 158.457C999.55 140.449 998.066 114.551 998.378 96.9922L949.101 58.5938C949.296 98.9844 953.261 161.562 951.718 182.305C951.718 182.305 922.87 180.508 900.937 193.496C886.23 202.246 866.171 231.758 862.128 255.469C859.843 268.809 855.214 313.906 855.663 333.105C856.015 389.297 859.394 458.32 920.116 476.641C918.646 474.503 917.341 472.257 916.21 469.922C912.48 435.137 906.991 381.504 907.304 346.582C909.491 278.652 919.745 232.617 998.593 232.031C1000.88 207.598 998.945 183.223 999.784 158.457Z" fill="#B53A25"/>
<path d="M999.102 506.582C996.602 507.949 952.129 480.02 950.059 479.766C950.996 488.73 949.57 500.527 942.695 507.109C942.032 508.022 941.189 508.789 940.219 509.363C939.248 509.938 938.17 510.307 937.051 510.449C899.121 517.539 860.195 550.605 860.684 591.484C860.918 612.051 859.98 631.348 860.117 652.754C860.313 680.273 859.141 731.484 871.016 754.961C879.668 772.09 902.266 785.293 912.324 786.934C912.539 786.934 908.125 705.449 909.961 639.609C911.445 586.035 939.922 566.777 994.355 544.785C1002.56 534.668 999.531 517.891 999.102 506.582Z" fill="#B53A25"/>
<path d="M830.234 900.996C844.59 907.695 902.813 918.574 924.746 913.145C934.102 910.801 944.766 924.707 945.84 917.793C946.719 877.891 946.465 832.949 946.211 793.965C948.32 794.277 985.274 824.18 989.668 827.422C991.719 830.469 995.527 833.477 995.527 836.563C995 874.941 999.668 922.188 994.707 960.234C994.119 961.775 993.184 963.159 991.975 964.28C990.766 965.401 989.315 966.229 987.734 966.699C939.922 970.879 882.051 942.344 848.164 917.871C841.472 913.059 835.443 907.385 830.234 900.996Z" fill="#B53A25"/>
<path d="M798.828 879.961C791.973 874.375 783.066 861.133 774.59 851.934C732.539 896.016 658.359 928.457 596.66 922.91L640.605 956.894C702.109 967.012 785.84 945.723 826.152 896.836C816.604 891.957 807.466 886.314 798.828 879.961Z" fill="#B53A25"/>
<path d="M411.035 58.5933C415.664 58.8472 421.289 60.4097 421.035 67.48C419.59 107.558 419.551 148.906 420.488 188.769C420.516 190.012 420.104 191.224 419.325 192.192C418.546 193.161 417.45 193.823 416.231 194.062C321.699 212.363 334.043 281.835 334.375 359.492C334.375 370.8 334.785 386.308 335.488 396.777C335.564 397.946 336.087 399.041 336.949 399.834C337.811 400.627 338.946 401.057 340.117 401.035C368.653 400.585 535.195 401.445 622.305 400.898C638.711 400.546 654.121 400.429 670.508 400.371C677.11 400.371 679.551 398.027 679.434 391.621C676.856 306.992 694.746 226.289 596.856 192.617C595.482 192.142 594.292 191.247 593.454 190.059C592.616 188.871 592.173 187.449 592.188 185.996C592.695 144.218 591.465 103.066 591.406 61.3081C591.407 60.0048 591.888 58.7473 592.756 57.7749C593.624 56.8026 594.819 56.1832 596.113 56.0347C660.567 49.023 731.25 82.0308 765.781 134.765C770.449 141.875 774.414 142.753 779.59 134.628C807.578 90.6636 842.559 74.8237 884.082 62.0112C904.434 55.7417 926.602 59.3745 942.129 59.4136C949.59 59.4136 952.442 61.0737 952.246 68.9644C951.875 84.98 952.461 101.035 952.637 117.05C952.637 145.488 952.5 171.035 952.344 185C952.313 186.501 951.72 187.936 950.682 189.02C949.644 190.105 948.237 190.761 946.738 190.859C874.629 195.722 863.008 241.23 860.254 305.117C860.684 380.644 853.262 468.769 948.145 481.21C949.185 481.365 950.141 481.872 950.852 482.648C951.563 483.423 951.986 484.418 952.051 485.468C952.188 488.613 952.793 493.769 952.93 496.894C953.145 502.265 952.07 505.214 946.914 506.66C935.938 509.902 908.301 518.144 896.973 528.613C880.664 543.691 862.149 570.292 862.715 598.027C861.68 636.621 861.485 675.253 861.641 713.886C861.641 713.886 867.735 784.707 940.469 793.964C946.485 794.726 948.477 796.015 948.516 803.222C948.77 841.582 949.863 879.023 947.52 918.75C947.363 921.21 945.723 925.078 942.559 925.585C936.121 926.371 929.616 926.437 923.164 925.781C872.383 923.378 831.582 906.503 808.711 888.906C800.899 882.89 785.84 867.578 777.969 858.906C777.384 858.25 776.669 857.723 775.87 857.357C775.07 856.991 774.204 856.794 773.325 856.78C772.447 856.765 771.574 856.932 770.763 857.271C769.952 857.61 769.22 858.114 768.613 858.75C719.942 908.886 668.653 933.593 596.192 922.949C595.664 882.949 594.492 844.824 594.453 804.531C594.453 798.828 596.856 796.132 600.684 794.648C618.613 787.656 673.985 791.074 681.211 718.281C682.539 674.589 680.742 638.613 681.211 594.824C680.879 593.808 678.945 591.855 677.5 592.46C563.633 591.953 430.879 592.265 338.008 593.144C334.238 593.144 332.344 594.121 332.363 598.535C332.539 623.769 334.629 642.773 335.156 668.007C336.719 694.16 338.594 717.402 349.199 743.144C359.531 768.242 379.199 786.582 413.399 794.921C420.274 796.601 424.004 800.488 424.395 808.378C426.231 845.917 426.602 888.593 427.774 926.132C395.02 926.796 362.539 926.464 330.742 914.843C298.555 903.125 282.246 885.859 260.528 864.062C259.709 863.244 258.719 862.619 257.629 862.231C256.539 861.843 255.376 861.701 254.225 861.817C253.074 861.933 251.963 862.303 250.972 862.901C249.981 863.498 249.136 864.309 248.496 865.273C208.477 925.781 138.36 926.21 84.1994 925.781C76.5236 925.781 75.6838 922.929 75.3713 915.253C73.7893 876.523 73.3205 837.343 72.5783 798.476C72.5046 797.612 72.6126 796.743 72.8953 795.923C73.178 795.103 73.6291 794.352 74.2197 793.717C74.8102 793.083 75.5271 792.579 76.3242 792.238C77.1213 791.897 77.981 791.726 78.8479 791.738C122.461 789.785 156.543 760.156 157.129 726.406C157.383 711.738 158.047 692.382 158.028 677.695C158.028 599.707 162.344 541.64 72.09 510.097C70.6252 509.589 72.09 495.351 71.6213 488.925C71.5938 488.565 71.6972 488.206 71.9124 487.916C72.1276 487.625 72.4403 487.422 72.7932 487.343C116.406 477.773 150.176 436.992 154.824 393.378C152.715 318.359 171.153 209.453 75.2541 193.222C72.914 192.84 70.7701 191.683 69.1658 189.937C67.5615 188.191 66.5898 185.957 66.4065 183.593C65.0393 154.628 65.1174 99.6089 65.5471 68.105C65.7424 54.648 70.1955 53.5151 81.5432 53.3394C98.0115 52.8293 114.495 53.5343 130.86 55.4487C169.414 60.4097 214.453 96.855 236.621 137.48C239.981 143.671 243.301 142.207 245.43 136.953C266.68 89.3159 320.742 62.0503 369.649 59.2183L411.035 58.5933Z" fill="#B8CDB4"/>
<path d="M783.026 67.3628L757.558 67.4072L758.292 487.895L783.76 487.85L783.026 67.3628Z" fill="#A88771"/>
<path d="M884.648 170.215C873.967 170.259 863.705 166.058 856.122 158.536C848.538 151.015 844.252 140.789 844.208 130.107C844.164 119.426 848.365 109.165 855.887 101.581C863.408 93.9973 873.635 89.712 884.316 89.668H884.765C895.386 89.6728 905.574 93.8725 913.113 101.353C920.652 108.834 924.931 118.989 925.019 129.609C925.097 140.284 920.938 150.554 913.454 158.166C905.97 165.779 895.772 170.112 885.097 170.215H884.648ZM884.765 115.234H884.628C880.923 115.553 877.474 117.254 874.965 120C872.457 122.745 871.074 126.334 871.092 130.053C871.109 133.772 872.525 137.348 875.058 140.07C877.592 142.793 881.057 144.462 884.765 144.746C886.708 144.731 888.63 144.332 890.419 143.574C892.208 142.816 893.83 141.712 895.192 140.326C896.555 138.94 897.631 137.299 898.358 135.497C899.086 133.695 899.451 131.767 899.433 129.824C899.377 125.959 897.811 122.268 895.07 119.542C892.329 116.816 888.631 115.27 884.765 115.234Z" fill="#A88771"/>
<path d="M783.652 304.316L758.262 303.008C758.555 297.148 766.445 161.016 849.18 133.086L857.344 157.207C823.594 168.633 805.43 207.051 796.133 237.285C789.563 259.112 785.378 281.587 783.652 304.316Z" fill="#A88771"/>
<path d="M780.914 511.82L755.445 511.873L756.34 939.196L781.809 939.143L780.914 511.82Z" fill="#A88771"/>
<path d="M882.617 892.675H882.265C871.584 892.631 861.358 888.346 853.836 880.762C846.314 873.178 842.114 862.917 842.158 852.236C842.202 841.555 846.487 831.328 854.071 823.807C861.655 816.285 871.916 812.084 882.597 812.128H882.949C893.622 812.237 903.817 816.571 911.3 824.182C918.783 831.793 922.943 842.06 922.871 852.734C922.783 863.354 918.504 873.51 910.965 880.99C903.426 888.471 893.237 892.67 882.617 892.675ZM882.617 837.597C878.715 837.607 874.975 839.155 872.208 841.904C869.44 844.654 867.867 848.383 867.831 852.285C867.8 856.208 869.327 859.983 872.078 862.781C874.828 865.578 878.576 867.17 882.499 867.206C884.446 867.253 886.381 866.899 888.185 866.166C889.99 865.434 891.624 864.339 892.988 862.949C894.381 861.595 895.491 859.977 896.252 858.19C897.013 856.402 897.411 854.481 897.421 852.538C897.442 848.618 895.912 844.849 893.164 842.054C890.416 839.258 886.673 837.663 882.753 837.617L882.617 837.597Z" fill="#A88771"/>
<path d="M769.317 997.167H768.965C758.284 997.123 748.058 992.838 740.536 985.254C733.015 977.67 728.814 967.409 728.858 956.728C728.902 946.047 733.187 935.821 740.771 928.299C748.355 920.777 758.616 916.576 769.297 916.62H769.649C780.322 916.729 790.517 921.063 798 928.674C805.483 936.286 809.644 946.553 809.571 957.226C809.483 967.846 805.204 978.002 797.665 985.482C790.126 992.963 779.937 997.163 769.317 997.167ZM769.317 942.089C765.416 942.099 761.675 943.647 758.908 946.396C756.14 949.146 754.568 952.876 754.532 956.777C754.5 960.7 756.028 964.475 758.778 967.273C761.528 970.071 765.276 971.663 769.2 971.699C771.146 971.747 773.083 971.394 774.887 970.662C776.692 969.929 778.326 968.833 779.688 967.441C781.081 966.087 782.191 964.469 782.952 962.682C783.713 960.894 784.111 958.973 784.121 957.031C784.142 953.111 782.612 949.341 779.864 946.546C777.116 943.75 773.373 942.155 769.453 942.109L769.317 942.089Z" fill="#A88771"/>
<path d="M769.317 83.3792H768.965C763.676 83.3574 758.444 82.2942 753.566 80.2501C748.688 78.206 744.261 75.2212 740.536 71.466C736.812 67.7109 733.864 63.2589 731.86 58.3644C729.856 53.4699 728.836 48.2286 728.858 42.9398C728.88 37.651 729.943 32.4183 731.987 27.5405C734.031 22.6626 737.016 18.2351 740.771 14.5108C744.526 10.7865 748.978 7.83826 753.873 5.83447C758.767 3.83069 764.008 2.81057 769.297 2.83237H769.649C780.325 2.94067 790.523 7.27794 798.007 14.8933C805.49 22.5087 809.649 32.7807 809.571 43.4574C809.488 54.0773 805.21 64.2339 797.669 71.7124C790.129 79.191 779.937 83.3847 769.317 83.3792ZM769.317 28.3011C765.39 28.2856 761.619 29.8305 758.831 32.5959C756.044 35.3613 754.469 39.1208 754.453 43.0472C754.438 46.9737 755.983 50.7455 758.748 53.5329C761.514 56.3203 765.273 57.895 769.2 57.9105C771.146 57.9675 773.083 57.6203 774.888 56.8908C776.693 56.1613 778.328 55.0654 779.688 53.6722C781.08 52.3134 782.189 50.6919 782.95 48.9016C783.711 47.1113 784.109 45.1878 784.121 43.2425C784.148 39.3324 782.63 35.5699 779.898 32.7723C777.167 29.9746 773.441 28.3679 769.532 28.3011H769.317Z" fill="#A88771"/>
<path d="M848.086 852.93C765.488 824.981 755.762 691.777 755.391 686.133L780.781 684.434C780.781 685.664 789.727 806.309 856.211 828.809L848.086 852.93Z" fill="#A88771"/>
<path d="M459.512 711.543H459.161C448.483 711.45 438.279 707.12 430.792 699.506C423.306 691.891 419.15 681.615 419.239 670.937C419.342 660.319 423.628 650.169 431.168 642.691C438.708 635.213 448.893 631.011 459.512 630.996H459.844C470.522 631.099 480.723 635.435 488.208 643.051C495.692 650.668 499.849 660.943 499.766 671.621C499.684 682.241 495.406 692.398 487.865 699.876C480.324 707.355 470.132 711.548 459.512 711.543ZM459.512 656.465C456.593 656.465 453.74 657.327 451.31 658.944C448.879 660.561 446.982 662.86 445.855 665.553C444.728 668.245 444.422 671.211 444.975 674.077C445.528 676.943 446.917 679.581 448.965 681.66C450.323 683.047 451.942 684.151 453.729 684.909C455.515 685.667 457.435 686.063 459.375 686.074C461.323 686.122 463.261 685.771 465.068 685.042C466.875 684.313 468.514 683.222 469.883 681.836C471.269 680.474 472.373 678.851 473.13 677.061C473.887 675.271 474.284 673.35 474.297 671.406C474.329 667.481 472.802 663.704 470.052 660.903C467.303 658.102 463.554 656.506 459.629 656.465H459.512Z" fill="#A88771"/>
<path d="M459.512 535.879H459.161C448.483 535.786 438.279 531.456 430.792 523.842C423.306 516.227 419.15 505.951 419.239 495.273C419.342 484.655 423.628 474.505 431.168 467.027C438.708 459.549 448.893 455.347 459.512 455.332H459.844C470.522 455.435 480.723 459.771 488.208 467.387C495.692 475.004 499.849 485.279 499.766 495.957C499.684 506.577 495.406 516.734 487.865 524.212C480.324 531.691 470.132 535.884 459.512 535.879ZM459.512 480.801C456.593 480.801 453.74 481.663 451.31 483.28C448.879 484.897 446.982 487.196 445.855 489.889C444.728 492.581 444.422 495.547 444.975 498.413C445.528 501.279 446.917 503.917 448.965 505.996C450.323 507.383 451.942 508.487 453.729 509.245C455.515 510.003 457.435 510.399 459.375 510.41C461.325 510.467 463.265 510.121 465.073 509.391C466.882 508.662 468.519 507.566 469.883 506.172C471.269 504.809 472.373 503.187 473.13 501.397C473.887 499.607 474.284 497.686 474.297 495.742C474.329 491.817 472.802 488.04 470.052 485.239C467.303 482.438 463.554 480.842 459.629 480.801H459.512Z" fill="#A88771"/>
<path d="M760.723 481.348H488.203V506.816H760.723V481.348Z" fill="#A88771"/>
<path d="M491.348 685.118C486.002 685.123 480.667 684.639 475.41 683.672L480.02 658.614C510.059 664.161 542.676 647.11 563.105 615.215C571.484 602.129 577.949 587.012 584.785 571.016C590.098 558.594 595.586 545.762 602.109 533.79C622.441 496.524 650.508 478.067 677.207 484.434L671.348 509.2C653.906 505.04 635.215 526.426 624.473 545.997C618.516 556.895 613.516 568.614 608.203 581.016C601.269 597.286 594.082 614.083 584.551 628.946C561.934 664.258 526.641 685.118 491.348 685.118Z" fill="#A88771"/>
<path d="M750.566 383.165L759.941 389.298C762.91 402.735 765.8 416.876 767.754 428.087C771.272 427.638 774.813 427.397 778.359 427.364L773.476 420.411C772.617 413.692 771.113 408.692 767.968 390.509C767.545 387.862 767.414 385.176 767.578 382.501C768.515 365.235 769.433 347.969 770.625 330.723C772.168 308.712 774.297 286.719 775.527 264.688C776.404 252.406 773.798 240.126 768.008 229.259C764.101 222.266 759.843 215.176 750.429 215.743C741.015 216.309 737.5 223.79 734.199 231.094C732.832 234.141 731.191 237.091 729.668 240.079L726.933 239.747C725.879 232.794 722.578 189.649 720.566 175.294C717.129 150.372 712.207 125.762 688.632 110.274C688.632 110.274 672.148 102.247 665.898 113.907C663.847 117.813 660.312 121.446 659.648 125.626C658.359 133.438 658.574 141.602 658.183 149.63C658.183 151.466 658.183 153.301 658.066 155.137L656.25 155.469C653.515 148.009 650.625 140.567 648.047 133.048C643.955 120.768 636.882 109.696 627.461 100.821C620.943 94.5941 613.229 89.7567 604.785 86.6023C587.734 80.7429 572.558 93.1648 573.652 110.801C573.75 112.481 573.984 114.161 574.433 118.614C571.918 116.555 569.232 114.712 566.406 113.106C559.528 109.916 552.433 107.213 545.175 105.02C528.965 100.782 515 112.989 518.164 128.887C519.456 134.69 522.206 140.067 526.152 144.512C531.855 150.997 538.984 156.231 545.488 162.091C547.109 163.516 548.672 165.001 550.722 166.876C544.98 168.497 540.078 169.298 535.703 171.251C523.418 176.759 521.035 190.313 531.054 198.985C535.168 202.552 539.986 205.214 545.195 206.798C555.664 209.864 566.445 212.012 577.168 214.161C590.84 216.895 604.804 218.926 618.496 221.973C623.847 223.126 629.785 224.532 632.715 230.684C626.738 234.591 620.664 232.169 614.765 232.247C605.354 232.02 595.938 232.431 586.582 233.477C578.476 234.669 571.465 239.024 569.531 247.774C567.968 254.962 572.91 262.579 581.347 267.149C582.405 267.747 583.517 268.244 584.668 268.634C598.593 272.852 612.402 277.52 626.504 281.075C640.605 284.63 654.59 286.7 668.574 289.786C674.707 291.134 680.742 293.126 684.59 299.376C681.316 300.232 677.915 300.49 674.55 300.137C667.285 299.395 660.058 297.559 652.812 297.657C640.976 297.833 635.136 308.301 641.718 317.696C645.059 322.281 649.507 325.943 654.648 328.341C664.567 332.966 674.801 336.882 685.273 340.059C711.64 347.755 733.691 361.7 750.566 383.165Z" fill="#B53A25"/>
<path d="M746.719 362.383C744.766 359.941 744.414 356.641 743.34 353.75C743.263 353.513 743.151 353.289 743.008 353.086C740.065 351.118 737.234 348.986 734.531 346.699C730.517 343.117 726.036 340.094 721.211 337.715C709.386 332.512 697.238 328.076 684.844 324.434L684.277 324.277C683.574 324.2 682.895 323.972 682.288 323.608C681.681 323.244 681.161 322.752 680.762 322.168C680.442 321.462 680.277 320.696 680.277 319.922C680.277 319.147 680.442 318.382 680.762 317.676C680.919 317.189 681.26 316.784 681.713 316.546C682.166 316.309 682.694 316.259 683.184 316.406C685.137 316.934 687.09 317.422 688.906 317.93C703.223 321.719 717.89 325.605 730.879 334.18C732.832 335.215 734.785 336.348 736.738 337.598C730.664 324.629 724.609 312.637 718.262 301.094C715.439 296.165 711.532 291.944 706.836 288.75C696.215 280.804 683.981 275.283 670.996 272.578C653.672 269.219 636.367 265.781 619.629 262.441C618.945 262.305 618.262 262.207 617.578 262.109C614.714 261.918 611.964 260.916 609.648 259.219C609.445 259.135 609.255 259.023 609.082 258.887C608.766 258.613 608.546 258.245 608.455 257.838C608.363 257.43 608.405 257.003 608.574 256.621C608.797 256.136 609.195 255.753 609.687 255.547L608.281 255.137L610.078 255.352C612.179 254.502 614.504 254.385 616.68 255.02L617.129 255.117C620.547 255.762 623.965 256.367 627.383 256.973C632.637 257.891 638.066 258.926 643.398 259.98C647.207 260.781 651.211 261.523 654.922 262.246C671.269 265.332 688.125 268.496 703.457 278.086L697.598 270.449C684.883 253.594 671.738 236.172 657.266 220.215C651.723 214.146 644.979 209.297 637.461 205.977C620.937 198.379 602.07 194.258 578.105 192.949H576.562C567.844 192.88 559.193 191.417 550.937 188.613C550.544 188.467 550.208 188.198 549.98 187.847C549.751 187.495 549.642 187.079 549.668 186.66C549.715 186.23 549.904 185.828 550.204 185.517C550.505 185.206 550.9 185.004 551.328 184.941C556.035 184.306 560.812 184.405 565.488 185.234C567.756 185.603 570.047 185.805 572.344 185.84C581.655 185.841 590.955 186.493 600.176 187.793C612.715 189.395 624.59 193.398 636.094 197.363L635.859 197.168L635.41 196.738C614.747 177.057 592.337 159.295 568.457 143.672C567.109 142.812 565.664 142.012 564.16 141.191C560.039 138.945 555.781 136.621 553.008 132.285C552.807 132.166 552.634 132.007 552.5 131.816C552.305 131.557 552.182 131.25 552.145 130.927C552.107 130.605 552.155 130.278 552.285 129.98V129.746C552.426 129.401 552.663 129.104 552.968 128.89C553.272 128.675 553.632 128.552 554.004 128.535C554.377 128.509 554.75 128.59 555.078 128.77C557.062 128.936 558.958 129.661 560.547 130.859L561.328 131.367C581.549 143.635 600.928 157.24 619.336 172.09C628.633 179.902 637.519 188.184 647.383 197.949C646.914 196.699 646.445 195.449 645.996 194.219C642.871 185.898 639.941 178.047 636.914 170.352C634.058 163.615 630.729 157.088 626.953 150.82C624.707 146.914 622.363 142.715 620.273 138.535C616.665 131.553 612.573 124.83 608.027 118.418C606.328 115.879 604.57 113.281 602.773 110.508C602.552 110.151 602.451 109.732 602.486 109.313C602.521 108.895 602.69 108.498 602.969 108.184C603.299 107.824 603.752 107.601 604.238 107.559C604.004 107.305 603.789 107.031 603.555 106.758L604.57 107.559C604.825 107.562 605.078 107.615 605.312 107.715C610.127 109.65 614.198 113.071 616.933 117.48C619.043 120.547 621.055 123.672 622.988 126.816C623.301 127.305 623.594 127.812 623.887 128.32C629.086 136.951 633.656 145.945 637.558 155.234C638.047 156.367 638.476 157.52 638.926 158.672C640.879 162.93 642.832 167.227 644.609 171.543C644.863 171.992 645.098 172.441 645.351 172.871C646.676 175.177 647.731 177.628 648.496 180.176C649.726 183.789 650.898 187.188 653.711 189.668C654.058 189.983 654.28 190.413 654.336 190.879C654.577 192.957 654.975 195.014 655.527 197.031C658.613 203.711 661.933 210.273 665.644 216.562C667.695 219.395 669.883 222.168 672.109 225C673.594 226.875 675.058 228.75 676.504 230.625C681.582 237.344 687.09 243.945 692.422 250.312L697.656 256.641C698.115 257.234 698.483 257.893 698.75 258.594C698.887 258.922 699.043 259.241 699.219 259.551C699.135 257.994 698.812 256.459 698.262 255C697.791 253.601 697.444 252.163 697.226 250.703C696.078 238.009 695.784 225.253 696.348 212.52L696.465 207.754C696.992 181.738 693.164 159.355 684.746 139.395L684.453 138.789C683.905 138.012 683.611 137.084 683.611 136.133C683.611 135.182 683.905 134.254 684.453 133.477C684.67 133.174 684.969 132.939 685.315 132.801C685.662 132.662 686.04 132.626 686.406 132.695C690.312 133.242 691.504 136.328 692.266 138.359C698.808 154.941 704.668 171.328 704.531 189.453L704.414 201.621C704.258 215.293 704.121 229.375 704.414 243.242C704.766 258.867 708.594 271.68 716.133 282.656C721.573 290.399 726.206 298.677 729.961 307.363C730.362 308.3 730.924 309.159 731.621 309.902C732.168 310.488 732.48 310.527 732.695 310.469C732.715 310.267 732.715 310.065 732.695 309.863C733.269 302.223 734.845 294.691 737.383 287.461C741.343 275.611 744.379 263.472 746.465 251.152L746.641 249.98C746.654 248.6 746.953 247.236 747.517 245.976C748.082 244.716 748.9 243.586 749.922 242.656C750.312 242.323 750.817 242.157 751.329 242.194C751.841 242.23 752.317 242.466 752.656 242.852C753.644 243.979 754.319 245.347 754.614 246.817C754.909 248.287 754.813 249.809 754.336 251.23C754.188 251.933 754.084 252.644 754.023 253.359C753.073 264.274 750.763 275.028 747.148 285.371C739.336 305.586 739.336 324.434 747.148 342.969L748.945 347.266C748.945 347.266 761.992 382.187 746.719 362.383Z" fill="#2D3837"/>
<path d="M779.492 394.297C780.228 394.999 781.04 395.615 781.914 396.133C793.633 401.582 798.477 413.008 793.633 425.02C789.864 434.317 786.153 443.653 783.145 453.203C780.938 460.215 776.563 466.504 776.114 474.102L775.137 475.352C776.582 475.782 775.762 474.493 776.114 474.082C776.914 473.965 777.91 473.946 778.223 473.067C780.938 465.254 786.309 458.907 790.371 451.817C794.864 444.004 799.805 436.426 804.473 428.711C805.976 426.129 808.001 423.888 810.419 422.133C812.837 420.377 815.595 419.145 818.516 418.516C823.554 417.279 828.867 417.844 833.533 420.113C838.199 422.382 841.924 426.211 844.063 430.938C848.418 441.465 844.864 454.375 835.196 458.907C819.864 466.231 804.883 474.532 788.614 479.688C786.367 480.411 785.508 481.817 785.078 484.746C800.313 480.176 815.215 477.5 829.824 473.653C837.774 471.563 845.742 469.746 853.711 473.418C864.141 478.321 868.731 491.993 863.731 503.067C859.278 512.832 844.824 518.438 834.688 514.004C820.586 507.832 805.86 503.282 791.504 497.774C790.371 497.344 789.278 496.582 788.145 497.774C787.95 499.434 789.473 499.727 790.41 500.274C803.282 508.282 816.094 516.387 829.102 524.2C843.457 532.813 845 551.797 831.446 561.465C820.528 569.278 805.352 566.348 799.356 554.102C795.137 545.43 791.075 536.68 787.071 527.911C784.043 521.231 781.797 513.946 777.012 507.969C775.313 509.668 776.094 511.231 776.465 512.793C779.922 527.578 783.477 542.344 786.719 557.168C788.887 567.071 786.289 575.352 777.696 581.465C770.684 586.446 760.801 586.426 752.305 581.016C746.172 577.11 742.735 568.301 743.828 560.645C745.235 550.879 749.961 542.383 752.95 533.301C755.567 525.254 758.418 517.305 761.289 509.024C760.623 508.949 759.948 509.072 759.351 509.378C758.754 509.683 758.259 510.158 757.93 510.743C751.289 521.836 744.883 533.067 738.008 543.946C733.36 551.348 728.965 559.121 718.77 560.547C713.984 561.397 709.05 560.655 704.726 558.434C700.402 556.213 696.926 552.635 694.829 548.249C692.733 543.863 692.132 538.911 693.119 534.151C694.106 529.391 696.626 525.086 700.293 521.895C704.375 518.36 709.532 516.758 714.317 514.59C727.637 508.555 740.977 502.598 753.887 495.528C752.559 493.77 751.407 494.473 750.235 494.766C733.535 499.004 716.836 503.203 700.02 506.953C696.43 507.843 692.674 507.815 689.099 506.871C685.523 505.927 682.242 504.099 679.559 501.554C676.876 499.009 674.877 495.829 673.745 492.308C672.614 488.787 672.388 485.038 673.086 481.407C675.508 468.418 689.375 460.059 700.84 464.395C715.547 469.961 730.449 475.078 745.332 480.157C747.657 480.938 749.239 484.063 753.145 482.11C740.196 473.203 727.051 465.332 713.731 457.832C703.203 451.973 696.543 442.637 697.52 432.442C698.262 424.629 706.778 414.864 714.063 413.496C724.473 411.543 735.352 416.055 739.453 424.493C746.524 439.317 753.282 454.297 760.215 469.2C760.977 470.84 761.172 473.106 764.024 474.102C760.235 457.715 756.485 442.012 753.008 426.25C748.399 405.332 753.36 402.188 765.723 394.317C770.176 393.77 774.825 393.047 779.492 394.297ZM755.489 487.618C755.285 489.407 755.455 491.219 755.987 492.939C756.52 494.659 757.403 496.251 758.581 497.613C759.759 498.974 761.207 500.077 762.833 500.851C764.459 501.625 766.228 502.054 768.028 502.11C774.59 502.305 781.075 496.094 781.426 489.317C781.425 485.905 780.109 482.626 777.751 480.16C775.394 477.693 772.178 476.23 768.77 476.075C767.133 475.928 765.484 476.113 763.921 476.619C762.358 477.125 760.913 477.941 759.672 479.019C758.432 480.097 757.422 481.414 756.704 482.892C755.985 484.369 755.571 485.977 755.489 487.618Z" fill="#F74700"/>
<path d="M769.648 473.261C767.379 473.056 765.092 473.311 762.924 474.011C760.756 474.711 758.752 475.842 757.032 477.336C755.312 478.83 753.911 480.656 752.914 482.705C751.917 484.753 751.345 486.982 751.23 489.257C750.507 500.293 758.105 509.043 768.613 509.336C777.695 509.589 786.679 501.015 787.168 491.621C787.656 482.226 779.472 473.73 769.648 473.261Z" fill="#2D3837"/>
<path d="M249.687 643.671C249.472 644.882 250.839 634.824 251.64 630.761C248.73 622.07 249.589 613.183 250.331 604.296C250.839 598.437 248.163 597.617 243.554 600.39C243.488 600.452 243.439 600.529 243.411 600.615C243.382 600.701 243.375 600.792 243.391 600.881C243.406 600.97 243.444 601.054 243.499 601.125C243.555 601.196 243.627 601.252 243.71 601.288C242.998 604.367 242.938 607.56 243.534 610.663C243.209 611.174 243.037 611.767 243.037 612.372C243.037 612.978 243.209 613.571 243.534 614.081C242.167 624.316 240.722 634.55 239.335 644.804C236.913 653.085 233.906 661.152 230.761 669.16L231.074 669.316C228.81 674.841 226.854 680.488 225.214 686.23L219.609 688.769L220.214 687.617C219.628 686.816 217.48 687.792 216.601 687.304C210.234 691.328 201.952 688.378 194.921 688.144C192.376 687.928 189.813 688.227 187.385 689.023C184.957 689.818 182.714 691.094 180.79 692.774C178.866 694.454 177.299 696.505 176.183 698.803C175.068 701.101 174.426 703.6 174.296 706.152C174.101 708.339 175.273 711.21 172.851 712.441C170.097 713.828 168.163 711.152 166.249 709.706C153.652 697.87 124.823 685.019 118.671 709.081C115.507 720.292 126.874 727.382 132.812 735.097C141.034 757.226 100.82 720.468 96.054 718.788C74.5696 700.351 34.3938 709.863 47.0696 743.574C49.3938 758.867 78.4563 772.421 73.2805 784.14C65.468 790.722 38.593 774.062 25.3704 778.71C11.718 781.249 6.17115 792.421 12.4993 804.453C30.4094 827.167 19.7454 825.624 3.8274 842.988C-4.74682 851.327 2.16725 866.953 13.8079 867.636C29.4329 871.542 52.1672 852.011 63.3391 868.007C70.2141 879.433 82.4797 893.046 95.0383 886.679C105.878 882.656 110.507 875.078 110.019 862.089C110.449 860.39 109.491 857.324 111.21 856.855C123.281 853.691 127.812 868.105 136.074 877.578C144.531 887.421 162.109 884.765 169.921 874.609C176.933 866.171 178.613 854.218 177.734 843.261C173.027 825.683 170.175 796.953 194.55 803.124L202.812 806.542C213.241 815.722 231.972 813.593 233.808 794.628L234.277 794.492C233.378 779.57 225.312 763.574 212.167 755.234C209.335 753.945 206.581 752.226 206.913 748.749C209.413 739.511 214.921 740.937 217.636 738.222C234.179 721.679 227.949 708.593 230.741 691.035H230.566C230.566 691.035 240.781 666.191 244.765 652.968L249.687 643.671ZM109.667 861.953L109.062 861.738L109.667 861.953Z" fill="#B53A25"/>
<path d="M213.242 710.527C212.434 711.152 211.821 711.995 211.475 712.957C211.129 713.919 211.064 714.96 211.289 715.957C203.61 722.775 196.959 730.669 191.543 739.394C187.793 741.347 185.527 744.941 182.246 747.617C181.381 748.451 180.841 749.565 180.723 750.761C179.473 761.738 184.629 773.711 193.359 779.57C200.547 783.203 202.871 785.234 202.148 786.054C201.445 787.617 199.023 786.914 197.695 786.406C185 784.453 175.684 768.828 175.293 754.531C142.637 781.992 136.23 810.39 157.402 846.718C157.949 850.742 154.707 851.816 151.836 846.972C137.656 825.488 135.039 800 147.031 779.765C131.523 789.062 119.141 800.781 107.539 815.41C94.1211 832.578 99.3164 844.472 95.3906 861.972L96.3867 863.828L92.7344 862.617L93.1641 861.914C86.875 846.699 93.1641 828.593 100.977 813.574C86.0475 822.39 70.6757 830.435 54.9219 837.675C48.6328 839.199 32.4609 852.558 28.0273 846.757C54.2383 830.879 85.9375 817.968 106.816 802.734C87.8125 808.398 68.0664 804.003 49.5703 800.39C44.5312 799.57 39.1406 800.293 34.5703 797.011C44.0625 789.882 58.0078 796.406 68.7109 797.343C107.656 806.015 127.305 788.398 154.551 764.511C119.258 784.785 89.0039 750.546 63.3789 730.8C62.0312 730.175 60.2148 728.847 61.7383 726.386C74.668 728.964 84.1602 741.269 94.3945 748.945C118.262 770.429 151.387 768.027 173.066 748.945C173.535 745.039 177.949 746.562 178.75 744.082C179.141 742.773 181.309 740.058 178.359 740.781C157.5 743.203 144.531 728.027 134.18 708.984C134.062 708.722 134.034 708.428 134.1 708.148C134.166 707.869 134.322 707.619 134.544 707.436C134.766 707.254 135.042 707.15 135.329 707.14C135.616 707.131 135.899 707.216 136.133 707.382C143.398 713.652 148.574 721.699 156.211 727.793C179.531 746.562 199.18 718.711 207.402 708.261C206.465 709.629 213.242 710.527 213.242 710.527Z" fill="#2D3837"/>
<path d="M264.043 237.383H238.574V438.32H264.043V237.383Z" fill="#A88771"/>
<path d="M364.922 173.32C354.241 173.364 343.98 169.163 336.396 161.642C328.812 154.12 324.527 143.894 324.483 133.213C324.439 122.532 328.64 112.271 336.161 104.687C343.683 97.1028 353.909 92.8175 364.59 92.7734H364.942C375.562 92.768 385.754 96.9617 393.294 104.44C400.835 111.919 405.113 122.075 405.196 132.695C405.269 143.377 401.103 153.652 393.612 161.267C386.121 168.883 375.916 173.217 365.235 173.32H364.922ZM364.922 118.242H364.786C362.841 118.25 360.918 118.64 359.124 119.392C357.331 120.143 355.703 121.24 354.334 122.62C352.965 124 351.881 125.636 351.144 127.436C350.407 129.235 350.032 131.161 350.039 133.105C350.047 135.05 350.438 136.973 351.189 138.767C351.94 140.56 353.037 142.188 354.417 143.557C355.797 144.926 357.434 146.01 359.233 146.747C361.032 147.484 362.959 147.859 364.903 147.852H365.039C367.972 147.829 370.832 146.936 373.256 145.285C375.68 143.635 377.559 141.302 378.656 138.582C379.752 135.862 380.016 132.878 379.414 130.008C378.812 127.138 377.371 124.511 375.274 122.461C372.519 119.75 368.807 118.234 364.942 118.242H364.922Z" fill="#A88771"/>
<path d="M263.926 307.422L238.535 306.113C238.848 300.254 246.719 164.102 329.473 136.191L337.617 160.312C303.867 171.738 285.703 210.137 276.406 240.391C269.829 262.216 265.644 284.692 263.926 307.422Z" fill="#A88771"/>
<path d="M144.375 173.32H144.023C133.345 173.212 123.145 168.875 115.659 161.261C108.172 153.646 104.009 143.374 104.082 132.695L116.836 132.813L104.082 132.695C104.175 122.079 108.456 111.928 115.994 104.452C123.533 96.9752 133.719 92.7782 144.336 92.7734H144.687C155.369 92.8149 165.596 97.0977 173.119 104.68C180.643 112.262 184.846 122.522 184.805 133.203C184.763 143.884 180.48 154.112 172.898 161.635C165.316 169.158 155.056 173.362 144.375 173.32ZM144.375 118.242C140.449 118.227 136.677 119.772 133.889 122.537C131.102 125.302 129.527 129.062 129.512 132.988C129.496 136.915 131.041 140.687 133.806 143.474C136.572 146.261 140.331 147.836 144.258 147.852H144.375C148.301 147.872 152.075 146.332 154.866 143.571C157.657 140.809 159.237 137.051 159.258 133.125C159.279 129.199 157.739 125.425 154.977 122.634C152.215 119.843 148.458 118.263 144.531 118.242H144.375Z" fill="#A88771"/>
<path d="M238.574 312.793C237.371 289.621 233.658 266.648 227.5 244.277C218.75 213.516 201.387 174.453 167.773 163.086L175.938 138.965C258.867 167.012 263.828 306.133 264.043 312.051L238.652 312.793L251.387 312.422L238.574 312.793Z" fill="#A88771"/>
<path d="M261.1 548.632L235.632 548.748L236.377 712.887L261.845 712.771L261.1 548.632Z" fill="#A88771"/>
<path d="M362.89 895.781H362.519C351.841 895.688 341.637 891.359 334.151 883.744C326.664 876.13 322.509 865.854 322.597 855.176C322.7 844.557 326.987 834.407 334.526 826.93C342.066 819.452 352.251 815.249 362.87 815.234H363.281C373.962 815.278 384.188 819.564 391.71 827.148C399.231 834.731 403.432 844.993 403.388 855.674C403.344 866.355 399.059 876.581 391.475 884.103C383.891 891.624 373.63 895.825 362.949 895.781H362.89ZM362.89 840.703C359.971 840.698 357.116 841.556 354.684 843.17C352.252 844.785 350.353 847.083 349.225 849.775C348.097 852.468 347.791 855.434 348.346 858.299C348.901 861.165 350.292 863.802 352.343 865.879C353.699 867.268 355.318 868.373 357.105 869.131C358.892 869.889 360.812 870.284 362.753 870.293C364.702 870.344 366.64 869.995 368.448 869.266C370.255 868.537 371.894 867.444 373.261 866.055C374.651 864.695 375.756 863.073 376.514 861.282C377.272 859.492 377.666 857.569 377.675 855.625L390.41 855.742L377.675 855.625C377.693 853.682 377.328 851.754 376.6 849.952C375.873 848.15 374.797 846.509 373.435 845.123C372.072 843.737 370.45 842.634 368.661 841.875C366.872 841.117 364.951 840.718 363.007 840.703H362.89Z" fill="#A88771"/>
<path d="M328.359 856.016C245.742 828.086 236.035 694.883 235.664 689.219L261.055 687.539L248.359 688.379L261.055 687.539C261.055 688.75 270 809.414 336.504 831.895L328.359 856.016Z" fill="#A88771"/>
<path d="M260.606 394.297C261.341 394.999 262.153 395.615 263.028 396.133C274.746 401.582 279.59 413.008 274.746 425.02C270.977 434.317 267.266 443.653 264.258 453.203C262.051 460.215 257.676 466.504 257.227 474.102L256.27 475.352C257.696 475.782 256.895 474.493 257.227 474.082C258.028 473.965 259.024 473.946 259.336 473.067C262.051 465.254 267.422 458.907 271.485 451.817C275.977 444.004 280.918 436.426 285.586 428.711C287.089 426.129 289.115 423.888 291.533 422.133C293.951 420.377 296.708 419.145 299.629 418.516C304.668 417.279 309.98 417.844 314.646 420.113C319.312 422.382 323.037 426.211 325.176 430.938C329.532 441.465 325.977 454.375 316.309 458.907C300.977 466.231 285.996 474.532 269.727 479.688C267.481 480.411 266.621 481.817 266.192 484.746C281.426 480.176 296.328 477.5 310.938 473.653C318.887 471.563 326.856 469.746 334.825 473.418C345.254 478.321 349.844 491.993 344.844 503.067C340.391 512.832 325.938 518.438 315.801 514.004C301.7 507.832 286.973 503.282 272.618 497.774C271.485 497.344 270.391 496.582 269.258 497.774C269.063 499.434 270.586 499.727 271.524 500.274C284.395 508.282 297.207 516.387 310.215 524.2C324.571 532.813 326.114 551.797 312.559 561.465C301.641 569.278 286.465 566.348 280.489 554.102C276.25 545.43 272.188 536.68 268.184 527.911C265.157 521.231 262.91 513.946 258.125 507.969C256.426 509.668 257.207 511.231 257.578 512.793C261.035 527.578 264.59 542.344 267.832 557.168C270 567.071 267.403 575.352 258.809 581.465C251.797 586.446 241.914 586.426 233.418 581.016C227.285 577.11 223.848 568.301 224.961 560.645C226.368 550.879 231.075 542.383 234.063 533.301C236.68 525.254 239.532 517.305 242.403 509.024C241.736 508.954 241.064 509.079 240.468 509.384C239.871 509.69 239.376 510.161 239.043 510.743C232.403 521.836 225.996 533.067 219.121 543.946C214.473 551.348 210.078 559.121 199.883 560.547C195.097 561.397 190.164 560.655 185.84 558.434C181.516 556.213 178.039 552.635 175.942 548.249C173.846 543.863 173.245 538.911 174.232 534.151C175.219 529.391 177.739 525.086 181.407 521.895C185.489 518.36 190.645 516.758 195.43 514.59C208.75 508.555 222.09 502.598 235.02 495.528C233.672 493.77 232.52 494.473 231.348 494.766C214.649 499.004 197.95 503.203 181.133 506.953C177.544 507.843 173.788 507.815 170.212 506.871C166.636 505.927 163.356 504.099 160.672 501.554C157.989 499.009 155.99 495.829 154.859 492.308C153.728 488.787 153.501 485.038 154.2 481.407C156.621 468.418 170.489 460.059 181.953 464.395C196.66 469.961 211.563 475.078 226.446 480.157C228.77 480.938 230.352 484.063 234.258 482.11C221.309 473.203 208.164 465.332 194.844 457.832C184.317 451.973 177.657 442.637 178.633 432.442C179.375 424.629 187.891 414.864 195.176 413.496C205.586 411.543 216.465 416.055 220.567 424.493C227.637 439.317 234.395 454.297 241.328 469.2C242.09 470.84 242.285 473.106 245.235 474.102C241.446 457.715 237.696 442.012 234.219 426.25C229.629 405.332 234.571 402.188 246.934 394.317C251.289 393.77 255.86 393.047 260.606 394.297ZM236.602 487.618C236.399 489.407 236.568 491.219 237.101 492.939C237.633 494.659 238.516 496.251 239.694 497.613C240.873 498.974 242.32 500.077 243.946 500.851C245.572 501.625 247.341 502.054 249.141 502.11C255.703 502.305 262.188 496.094 262.539 489.317C262.538 485.905 261.222 482.626 258.865 480.16C256.508 477.693 253.291 476.23 249.883 476.075C248.247 475.928 246.597 476.113 245.034 476.619C243.471 477.125 242.026 477.941 240.786 479.019C239.546 480.097 238.536 481.414 237.817 482.892C237.098 484.369 236.685 485.977 236.602 487.618Z" fill="#F74700"/>
<path d="M250.761 473.262C248.499 473.068 246.22 473.331 244.061 474.037C241.902 474.742 239.908 475.875 238.196 477.367C236.485 478.86 235.091 480.683 234.099 482.725C233.107 484.768 232.536 486.99 232.422 489.258C231.699 500.293 239.297 509.043 249.804 509.336C258.886 509.59 267.871 501.016 268.359 491.622C268.847 482.227 260.586 473.731 250.761 473.262Z" fill="#2D3837"/>
</g>
<defs>
<clipPath id="clip0">
<rect width="1000" height="1000" fill="white"/>
</clipPath>
</defs>
</svg>
