<svg xmlns="http://www.w3.org/2000/svg" viewBox="0 0 2784 1680"><defs><style>.cls-1{fill:#91a88c;}.cls-2{fill:#677662;}.cls-3{fill:#f74700;}</style></defs><g id="Layer_1" data-name="Layer 1"><path class="cls-1" d="M2446,543.81l-.58-23.91-72.05-.46c4.5,81.06,4.5,110.33,4.5,247.22,27,11.71,56.74,23.87,68.45,32.42l56.29-62.59c-15.76-1.35-42.33-10.35-57.19-18.91,0-80.61,0-105.82.9-133.29Z"/><path class="cls-2" d="M1442.92,717.58l-67.55,49.08c27,11.71,54.5,23.87,66.2,32.42l56.29-62.59C1482.1,735.14,1457.78,726.14,1442.92,717.58Z"/><path class="cls-1" d="M924.57,571.68l44.79-61.23-.65-.46L849.37,563.13c4.51,53.13,4.51,98.61,4.51,189.58,30.17,9,78.8,27.91,118,46.37l52.69-62.59c-31.07-4.5-80.15-15.31-103.12-28.82,0-57.64,0-89.61,3.15-136Z"/><path class="cls-1" d="M689.35,737.08l-8.42-2.84h0c-24.77-6.3-49.08-14.41-69.34-26.57,0-57.64,1-89.72,4.14-136.1l.17,0L660.26,511l-1.39-1L539.54,563.13c4.5,53.13,4.5,98.61,4.5,189.58,25.22,6.3,60.79,27.91,93.66,46.37,0,0,40.53-48.18,50.44-59.89Z"/><path class="cls-1" d="M1774.81,746l-75.21-10.36c-27.46-6.75-55.83-14.86-77.89-27.92,0-57.19,0-89.16,3.15-134.64l.31.05L1678,510l-128.33,53.14c4.5,53.13,4.5,98.61,4.5,189.58,25.21,6.3,73.4,32.87,92.31,46.37L1774.81,746"/><path class="cls-1" d="M2306.51,647.3l-55.24,0h-54.93c.45-25.67,1.35-48.18,3.15-75.65l.33.1L2243.68,510l0,0-119.34,53.14c4.51,53.13,4.51,98.61,4.51,189.58,30.16,9,78.8,27.91,118,46.37l52.69-62.59c-31.07-4.5-80.15-15.31-103.12-28.82V667.14l57.19,22.52c19.19-16.51,29.1-25.51,52.95-42.33"/><path class="cls-2" d="M328.32,519.9l111.22,13.5,15.32-76.55L320.15,443.38l8.14,76.93Z"/><path class="cls-2" d="M469.72,828.81c-4.51-81.06-4.51-139.15-4.51-230.11-25.22-6.3-77.9-32.87-96.81-46.39,0,0-25.87,28.78-42.54,47.35V619c23.78,7.18,48,15.72,67.31,28.74,0,72.05,0,109-4.51,190Z"/><path class="cls-2" d="M2377.59,767.12c26.88,11.64,57,23.47,68.69,32l56.29-62.59c-14.89-1.28-41.28-10.91-56.48-19Z"/><path class="cls-2" d="M1530.72,1169l-15.1-69.31-78.2,13.33c-15.11-39.1-21.78-61.32-31.55-100.42,22.21-13.77,70.2-44.43,90.64-61.31,36,8.88,72.43,19.55,101.75,19.55l-18.66,72.42c-28.44-6.22-69.32-21.77-96-33.32l25.32,74.64,68-20.88c12,36,20,69.31,28,112-28.43,19.11-54.65,45.76-70.64,60-47.1-8.88-72.87-13.77-122.19-13.77,7.11-31.55,20-56.87,32-76Z"/><path class="cls-2" d="M1742.65,960.15h39.1l-6.22,44h-34.21c-.89,37.33-.89,78.64-.89,151.07,14.67,8.44,38.66,17.33,54.21,18.66l-55.54,61.76c-11.55-8.44-38.66-20.44-65.32-32,0-82.64,0-145.29-.88-199.5h-21.33c8-19.55,12-24.44,20-44-.44-18.21-1.33-36-2.22-53.32l75.53,8.89C1744,932.16,1743.1,946.38,1742.65,960.15Z"/><path class="cls-1" d="M1673.78,1203.64c0-82.64,0-145.29-.88-199.5h-21.33c8-19.55,12-24.44,20-44-.44-18.21-1.33-36-2.22-53.32l75.53,8.89c-.88,16.44-1.77,30.66-2.22,44.43h39.1l-6.22,44h-34.21c-.89,37.33-.89,78.64-.89,151.07"/><path class="cls-1" d="M1447.52,1111.28l69.84-29.3-8.41,2.58-25.32-74.64,10.22-56.52c-21.66,17.22-66.66,46-88,59.18,9.77,39.1,16.44,61.32,31.55,100.42Z"/><path class="cls-1" d="M1530.72,1169l-86.64-23.1c-12,19.11-24.88,44.43-32,76,49.32,0,75.09,4.89,122.19,13.77,15.78-14,41.52-40.16,69.52-59.2Z"/><path class="cls-1" d="M1356,981.75l-.91,104.92c-24.31,17.12-34.22,26.13-53.58,42.79l-57.19-22.52v40.53c23,13.51,72,24.32,103.12,28.82l-52.69,62.59c-39.17-18.46-87.81-37.37-118-46.38,0-91,0-136.45-4.5-189.58l119.34-53.13C1310.52,963.29,1328.07,968.7,1356,981.75Zm-56.75,105.37v-54.93c-16.21-8.1-31.07-14-51.78-20.71-1.8,27.46-2.7,50-3.15,75.64Z"/><path class="cls-2" d="M1250.38,1011.48l-.07.94c19.22,6.36,33.5,12.05,48.94,19.77v54.93h55.21l.63-.45.91-104.92c-26.65-12.45-43.85-18-61.8-30.17Z"/><path class="cls-1" d="M328.29,520.31l-8.14-76.93-.39,0c-20.71,17.12-45.93,36.92-68.44,50.88,4.5,81.06,2.7,210.75-1.81,295.86h80.61c-2.14-40.65-3.7-87.5-4.26-134.31V573.93Z"/><path class="cls-1" d="M1166.62,567.29c1.82-52,2-91.53,3.84-123.95l-76.55,9c4.5,81,3.61,200.83,3.61,337.73H1166V668.5Z"/><path class="cls-2" d="M1294.29,659.49c-15.3-6.76-32.42-14.86-46.37-22.06l36.91-14V542.86c-34.21-11.26-45.92-18-70.69-32.87,0,0-31.38,34.58-47.17,52.36l-.11,12c21.62,4,31.07,5.86,50.44,11.25V609.5c0,4.49-30.9,29.13-51.17,47.13l-.09,10.68,1,.79c26,9.44,45.8,17.52,59.73,23.81,0,22.52-.45,80.6-.45,99.52l68,8.1C1292,764.87,1292,699.12,1294.29,659.49Z"/><path class="cls-2" d="M924.57,571.68c28.37,9.45,46.39,16.66,70.7,31.52L1033.1,542c-27.6-12.91-45.07-18.35-63.74-31.52Z"/><path class="cls-2" d="M751.64,717.58c-.74-80.52-.46-99.52-.46-161.21C726.53,550.2,680,524.71,660.27,511l-44.42,60.73.06.22c27.68,5,45.08,12.53,67.73,22.3,0,41-1.11,77.44-2.71,140l8.42,2.84-1.06,2.35c17.55,28.71,41.76,51.57,53,59.65l56.28-62.59C782.26,734.24,766.49,726.14,751.64,717.58Z"/><path class="cls-1" d="M1375.37,766.66c0-83.75,0-147.25-.89-202.19h-21.62c8.1-19.81,12.16-24.76,20.26-44.57-.45-18.47-1.35-36.48-2.25-54l76.55,9c-.89,16.66-1.8,31.07-2.25,45h39.62l-6.3,44.57h-34.67c-.9,37.83-.9,79.71-.9,153.11Z"/><path class="cls-2" d="M1625,573.34l4.41.53c26.05,4.88,52.54,11.38,73.4,20.33,0,42.32,0,75.64-3.16,141.39L1774.81,746c-4.5-81.06-4.5-127.89-4.5-189.58-25.22-6.31-73.41-32.88-92.32-46.38Z"/><path class="cls-1" d="M1913,564c2.62-57.89,1.7-104.78,2.75-134.15l-71.15,22.52c1.35,81,.45,238.66.45,300.36,25.22,6.3,73.41,32.87,92.32,46.37L2056.73,746v-.14l-75.45-8.29v-.17c-28.23-5-45.75-12.6-68.65-22.48,0-22,0-80.15.45-140.49Z"/><path class="cls-2" d="M2056.72,745.81c-4.49-53.07-4.49-98.56-4.49-189.44-25.23-6.31-60.8-27.92-93.67-46.38,0,0-30.8,36.46-45.31,53.83l0,10.6c25.61,6.3,50.34,14.84,71.46,27,0,57.11-1.06,90.14-3.41,136.12Z"/><path class="cls-2" d="M2199.6,572.1l2.88.91c19.23,6.36,32.93,11.24,48.37,19v54.94l55.63.42c.22-.16,1-.79,1.17-.94L2308,542c-26.65-12.46-46.2-20-64.15-32.21Z"/><path class="cls-2" d="M2472.85,510.89l-26.12,32.42-.64.71v39.91l3.21,1.65A407.86,407.86,0,0,1,2490,605.45l54-61.69C2522.83,533.4,2494.91,521.69,2472.85,510.89Z"/><path class="cls-3" d="M568.56,1114.86,636,1025.22l11.21-47.62c-19.1,6.62-37.44,17.57-54,27.5l-23.17-39c23.42-6.62,39.47-13,62.39-21.65l62.39,36.17-25.21,70.28-50.93,54.5c23.93,0,48.38.25,70.54-3.06l-12.74,38.2H583.07Z"/><path class="cls-3" d="M862.18,975.82c0,34.89.26,94,2.81,139.81l-72.58,30c-10.7-7.64-37.95-22.67-52.21-26.23,0-51.45-.25-109.76-2.8-139.81l72.58-30C820.67,957.23,847.92,972.25,862.18,975.82Zm-39.72,133.95c1.78-37.18,1.52-88.62,1.52-112.56-12.47-5.35-28.52-9.17-44.05-12-1.78,26.48-1.53,76.4-1.53,108.74C790.88,1101.37,806.92,1106,822.46,1109.77Z"/><path class="cls-3" d="M1900.08,1114.86l67.49-89.64,11.2-47.62c-19.1,6.62-37.43,17.57-54,27.5l-23.17-39c23.43-6.62,39.47-13,62.39-21.65l62.39,36.17-25.21,70.28-50.93,54.5c23.94,0,48.39.25,70.54-3.06l-12.73,38.2H1914.6Z"/><path class="cls-3" d="M2082.17,1145.93c0-19.86-1.79-111.29-1.79-145.66l22.67-14.78h-34.13l6.63-35.9h45.83l-2.8,35.65c.26,55.77.77,131.15,2.8,155.6Z"/><path class="cls-2" d="M1081.16,1268.65l.63-.33c-.89-90.43,0-151.41,2.65-248l23.94-3L1127.44,979h-41.67l3.15-40.61c-.92-4.34,1-15.09,1-15.09l63.59,30.17,35.36-58S1110.12,846.89,1096,838c-11.52,8.43-53.65,31.71-80.24,43.23,1.33,22.61,2.66,72.94,3.55,97.76h-.45l-19.06,41.33h21.28c.25,7.75.49,18.16.71,25.36h-8.89c.89,54.81.89,189.5.89,273,27,11.68,54.36,23.81,66,32.35L1136,1288.6c-15.72-1.36-40-10.34-54.8-18.87Z"/><path class="cls-1" d="M1085.77,978l3.15-36.13L1096,837c-8.15,6-39.18,25-57.23,33.12v-.3l-29.47,11.56c.89,17.52,1.8,61.89,2.25,80.31-.29.28-.3,6.91-.18,16.3H980.22l-19.06,44.33h51.12c.32,12.72.6,22.36.6,22.36.89,54.81.89,189.5.89,273l67.39-49v-1.08l.63-.33c-.89-90.43,0-148.41,2.65-245h39.93L1143.43,978Z"/></g></svg>